<svg xmlns="http://www.w3.org/2000/svg" viewBox="0 0 3579.36 2435.36">
  <defs>
    <style>
      .cls-1 {
        fill: #f2f0e9;
      }
    </style>
  </defs>
  <title>isands_kort_litir</title>
  <g id="Layer_2" data-name="Layer 2">
    <g id="Layer_1-2" data-name="Layer 1">
      <path class="cls-1" d="M821.86,2059.81l-6.18-112.22s61.1-20.6,75.56-66.52c16.59-52.69-.4-96.15-.4-96.15l500.73-412.68h425.25l694.47,76.48,645.53,191.21s-24.48,15.3-32.13,39.77-6.11,36.32-6.11,36.32h-128.5l-61.18,60-110.14,36.71L2564.83,2097.3s-180.5,22.95-305.93,62.72l-68.84,47.42-78,122.37L1901,2435.36l-121.39-30.59-91.23,16.82-217.21-97.89-134.62-1.53-270.75-253.93-67.3-22.95-28.62-45.89L939.17,2040l-80.12,22.75Z"/>
      <polygon class="cls-1" points="846.67 1751.7 784.89 1725.44 820.17 1682.78 839.87 1682.78 852.17 1659.8 815.68 1649.13 708.58 1736.93 675.76 1738.57 703.66 1682.78 682.33 1674.57 697.1 1654.88 695.45 1617.95 750.43 1576.11 763.97 1582.67 770.34 1561.34 855.46 1482.57 706.12 1541.65 675.76 1579.39 625.71 1449.75 638.84 1361.95 317.19 1270.05 286.01 1298.77 218.73 1297.13 162.11 1339.8 99.75 1255.28 85.8 1215.9 129.29 1210.15 177.7 1194.71 226.11 1233.13 309.81 1179.79 369.7 1206.87 371.35 1157.64 432.06 1157.64 460.78 1189.64 528.07 1114.97 565.81 1174.87 601.91 1134.66 850.53 1161.74 832.48 1114.97 874.33 1045.23 852.17 1009.12 786.53 1069.02 740.58 1089.54 586.32 1029.64 761.92 895.07 848.89 890.15 1339.57 1341.44 846.67 1751.7"/>
      <polygon class="cls-1" points="712.69 834.65 759.39 782.37 860.04 834.65 971.13 834.65 1006.42 758.85 892.71 617.68 994.66 654.28 1022.11 502.67 982.9 475.22 1012.96 438.62 937.15 391.57 909.7 298.77 852.19 247.79 779 209.89 679.66 51.73 650.91 93.56 541.12 51.73 533.27 97.48 477.07 143.23 590.78 161.53 619.54 138 627.38 171.98 682.28 221.65 542.42 225.57 542.42 277.85 670.51 354.97 716.26 443.19 692.73 562.79 665.29 453 626.08 510.51 631.3 419.01 571.18 378.5 518.9 403.33 511.06 339.29 487.53 294.85 393.42 238.64 316.31 268.7 385.58 373.27 264.02 328.83 245.72 354.97 382.96 486.98 245.72 443.19 203.9 489.6 312.38 548.41 433.94 570.63 352.9 600.69 346.37 635.98 155.54 539.26 186.91 706.57 91.49 638.6 0 740.55 193.44 815.05 348.98 769.3 470.54 752.31 669.21 773.22 712.69 834.65"/>
      <polygon class="cls-1" points="915.2 884.71 1395.37 1314.06 1823.91 1315.87 2377.23 1375 2561.5 901.1 2727.8 652.63 3001.71 357.2 2937.35 314.56 3018.41 236.73 2997.47 180.37 3145.63 107.36 3145.63 87.5 3062.42 110.04 3036.66 87.5 2976.53 112.19 2953.45 175.53 2880.98 209.89 2876.69 282.36 2825.16 227.07 2744.64 191.64 2790.8 106.29 2688.81 75.15 2696.32 34.35 2642.64 0 2587.36 62.27 2549.24 26.84 2497.17 46.7 2506.3 127.22 2558.9 208.28 2518.11 273.23 2406.99 326.38 2374.78 249.07 2304.46 283.43 2306.61 332.82 2273.86 354.82 2265.81 436.42 2189.59 450.38 2109.07 340.33 1966.81 308.66 1995.8 419.78 2043.58 486.88 2057 698.91 1974.33 471.85 1902.4 438.57 1882.54 349.46 1806.31 287.73 1748.87 293.63 1682.85 372 1580.32 379.52 1601.25 449.3 1554.01 470.24 1619.5 630.74 1515.36 626.98 1503.02 530.9 1465.44 527.67 1375.26 331.74 1288.3 381.13 1300.77 708.63 1208.87 742.55 1205.79 658.05 1126.84 714.79 1096.61 855.42 1068.24 838.77 1058.99 936.84 1022.11 883.8 915.2 884.71"/>
      <path class="cls-1" d="M2435.22,1388.34l177.29-457.7,161.54-250,318.35-344.3,66-21.22,29.48,71.92-31.84,82.54-38.91,64.85L3129,619.36l90.79-59,71.92-33-27.11,81.36,119.08,69.57,59-34.2-5.9,80.18,86.07,2.36,8.26,87.25-51.88,25.94-57.78,70.75,102.58-31.84,16.51,53.06L3450.84,979l120.27,1.18,8.25,92-27.12,43.63-129.7-31.84,102.58,73.1L3424.9,1318.56l-49.52,25.94s-109.66-54.24-116.73-48.34,110.83,92.18,110.83,92.18-75.46,17.47-77.82,24.55,27.12,36.55,27.12,36.55l-23.58,33L3309.35,1585s-79-1.18-119.09,15.33L2522.9,1401.09Z"/>
    </g>
  </g>
</svg>
