<svg xmlns="http://www.w3.org/2000/svg" viewBox="0 0 3580.73 2436.54">
  <defs>
    <style>
      .cls-1 {
        fill: none;
        stroke: #000;
        stroke-miterlimit: 10;
      }
    </style>
  </defs>
  <title>islands_kort_</title>
  <g id="Layer_2" data-name="Layer 2">
    <g id="Layer_1-2" data-name="Layer 1">
      <path class="cls-1" d="M463.12,2055.71l17.61-74.81,8.8-116.63,61.61,85.82,121-39.61s46.21,37.41,90.22,49.51l8.8,95.72s-90.5-4.53-154-4.53S463.12,2055.71,463.12,2055.71Z"/>
      <path class="cls-1" d="M730.85,1888.73s43.81,26.77,77.89,7.3,48.68-59.63,31.64-93.71-59.63-41.38-59.63-41.38l19.32,56.55-63.14-6.65,13.39,69.37Z"/>
      <path class="cls-1" d="M822.72,2060.46l-6.18-112.22s61.1-20.6,75.55-66.52c16.6-52.69-.39-96.15-.39-96.15l500.73-412.68h425.25l694.47,76.48,645.52,191.21s-24.47,15.3-32.12,39.77-6.12,36.33-6.12,36.33H2990.94l-61.19,60-110.13,36.72L2565.69,2098s-180.5,23-305.94,62.72l-68.83,47.42-78,122.38L1901.81,2436l-121.39-30.59-91.23,16.83L1472,2324.35l-134.61-1.53-270.75-253.93L999.3,2046l-28.61-45.89L940,2040.61l-80.12,22.75Z"/>
      <polygon class="cls-1" points="847.52 1752.35 785.75 1726.1 821.03 1683.43 840.72 1683.43 853.03 1660.45 816.54 1649.79 709.44 1737.58 676.62 1739.22 704.52 1683.43 683.18 1675.22 697.95 1655.53 696.31 1618.61 751.29 1576.76 764.83 1583.32 771.19 1561.99 856.31 1483.22 706.98 1542.3 676.62 1580.04 626.57 1450.4 639.7 1362.6 318.05 1270.7 286.87 1299.42 219.59 1297.78 162.97 1340.45 100.61 1255.93 86.66 1216.55 130.15 1210.81 178.56 1195.36 226.97 1233.78 310.66 1180.44 370.56 1207.52 372.2 1158.29 432.92 1158.29 461.64 1190.29 528.92 1115.62 566.67 1175.52 602.77 1135.32 851.39 1162.39 833.34 1115.62 875.19 1045.88 853.03 1009.78 787.39 1069.67 741.44 1090.19 587.18 1030.29 762.77 895.72 849.75 890.8 1340.42 1342.09 847.52 1752.35"/>
      <polygon class="cls-1" points="713.54 835.31 760.25 783.02 860.89 835.31 971.99 835.31 1007.28 759.5 893.57 618.34 995.52 654.93 1022.97 503.32 983.75 475.87 1013.82 439.27 938.01 392.22 910.56 299.42 853.05 248.44 779.86 210.54 680.52 52.39 651.76 94.21 541.97 52.39 534.13 98.13 477.93 143.88 591.64 162.18 620.4 138.65 628.24 172.63 683.13 222.3 543.28 226.22 543.28 278.5 671.37 355.62 717.12 443.85 693.59 563.44 666.14 453.65 626.93 511.16 632.16 419.67 572.03 379.15 519.75 403.98 511.91 339.94 488.38 295.5 394.28 239.29 317.16 269.36 386.44 373.92 264.88 329.48 246.58 355.62 383.82 487.63 246.58 443.85 204.76 490.25 313.24 549.06 434.8 571.28 353.76 601.35 347.22 636.64 156.4 539.91 187.76 707.22 92.35 639.25 0.86 741.2 194.3 815.7 349.84 769.95 471.39 752.96 670.06 773.88 713.54 835.31"/>
      <polygon class="cls-1" points="916.05 885.36 1396.23 1314.71 1824.77 1316.52 2378.09 1375.65 2562.36 901.75 2728.66 653.28 3002.56 357.86 2938.2 315.22 3019.26 237.38 2998.33 181.02 3146.48 108.01 3146.48 88.15 3063.28 110.69 3037.51 88.15 2977.39 112.84 2954.31 176.19 2881.84 210.54 2877.55 283.01 2826.01 227.72 2745.49 192.29 2791.66 106.94 2689.67 75.8 2697.18 35.01 2643.5 0.65 2588.21 62.92 2550.1 27.49 2498.03 47.35 2507.15 127.87 2559.76 208.93 2518.96 273.88 2407.85 327.03 2375.64 249.73 2305.32 284.08 2307.47 333.47 2274.72 355.48 2266.67 437.07 2190.44 451.03 2109.92 340.98 1967.67 309.31 1996.66 420.43 2044.43 487.53 2057.85 699.57 1975.18 472.5 1903.25 439.22 1883.39 350.11 1807.17 288.38 1749.73 294.28 1683.7 372.65 1581.17 380.17 1602.11 449.95 1554.87 470.89 1620.36 631.39 1516.22 627.63 1503.87 531.55 1466.3 528.33 1376.12 332.39 1289.15 381.78 1301.63 709.28 1209.73 743.2 1206.64 658.7 1127.69 715.45 1097.47 856.08 1069.1 839.42 1059.84 937.49 1022.97 884.45 916.05 885.36"/>
      <path class="cls-1" d="M2436.08,1389l177.29-457.7,161.53-250L3093.26,337l66-21.23,29.48,71.93-31.83,82.53L3118,535.12,3129.81,620l90.79-59,71.92-33L3265.4,609.4,3384.49,679l59-34.19L3437.55,725l86.07,2.36,8.25,87.25L3480,840.5l-57.77,70.75,102.58-31.84,16.51,53.06-89.61,47.16L3572,980.81l8.26,92-27.12,43.63-129.7-31.84L3526,1157.68l-100.22,161.53-49.52,25.94s-109.66-54.24-116.73-48.34S3370.34,1389,3370.34,1389s-75.46,17.47-77.82,24.55,27.12,36.55,27.12,36.55l-23.58,33,14.15,102.58s-79-1.18-119.09,15.33l-667.36-199.26Z"/>
    </g>
  </g>
</svg>
