<svg width="756" height="524" viewBox="0 0 756 524" fill="none" xmlns="http://www.w3.org/2000/svg">
<path d="M388.485 522.688C387.352 522.426 384.476 521.555 382.124 520.684C378.464 519.377 377.419 519.29 375.327 520.422C373.933 521.119 370.971 520.858 370.274 521.468C369.402 522.165 367.311 521.729 363.477 519.987C360.428 518.593 329.321 503.433 322.176 501.778C318.516 500.906 311.197 500.209 305.795 500.209C296.558 500.209 295.6 499.948 289.152 496.637C284.011 493.936 279.48 490.277 271.115 481.652C260.921 471.197 245.585 458.651 239.224 455.427C231.818 451.68 221.1 445.32 219.968 444.013C218.225 441.922 207.856 441.835 207.856 443.926C207.856 446.017 206.462 446.627 198.358 448.195C187.031 450.374 184.33 450.112 181.106 446.453C179.363 444.449 177.708 443.491 176.662 443.839C175.704 444.101 172.915 445.146 170.388 446.017C164.028 448.37 146.862 448.195 139.979 445.756C136.406 444.449 134.663 444.275 134.141 445.059C133.705 445.669 131.614 446.54 129.348 446.889C127.083 447.324 124.73 448.108 124.033 448.718C123.336 449.328 121.158 449.502 119.241 449.241C117.324 448.892 114.361 449.067 112.706 449.502C108.698 450.635 107.042 448.108 108.523 443.055C109.307 440.354 109.133 439.309 107.826 438.002C106.345 436.521 106.432 435.911 108.872 431.206C111.486 426.066 111.573 425.979 109.569 423.887C107.391 421.622 106.955 418.137 108.61 416.482C109.22 415.872 110.179 412.561 110.789 409.076C111.486 405.243 112.531 402.542 113.403 402.193C115.755 401.322 120.461 406.811 123.162 413.52C125.253 418.747 126.037 419.705 128.825 420.228C131.352 420.751 132.311 420.49 133.269 418.921C133.966 417.789 136.58 415.872 139.194 414.565C143.203 412.561 144.335 412.3 146.862 413.258C149.476 414.304 150.26 414.042 153.397 411.69C155.314 410.209 158.103 408.989 159.584 408.989C162.372 408.989 163.156 407.247 161.152 405.243C160.455 404.546 160.281 402.977 160.717 401.409C161.326 399.057 161.849 398.795 164.376 399.144C167.164 399.579 167.252 399.492 165.596 397.924C164.638 397.053 162.982 396.007 162.024 395.572C159.584 394.613 159.758 391.825 162.198 391.825C163.243 391.825 164.463 392.261 164.812 392.871C165.16 393.394 167.6 393.916 170.214 393.916C174.484 393.916 175.181 393.568 176.749 390.78C178.492 387.73 178.492 387.643 176.488 387.121C175.355 386.859 174.484 385.727 174.484 384.681C174.484 383.461 173.787 382.764 172.48 382.764C168.994 382.764 169.866 377.711 174.222 373.006C176.313 370.741 178.928 367.866 180.06 366.559L182.064 364.119L178.492 366.385C172.305 370.393 168.21 371.787 164.899 371.09C163.156 370.741 160.281 370.393 158.451 370.305C156.621 370.218 155.14 369.783 155.14 369.347C155.14 368.824 157.231 366.21 159.758 363.51C164.289 358.718 164.376 358.456 162.808 356.104C161.326 353.752 161.326 353.142 163.766 345.736C165.16 341.38 167.077 337.023 168.036 335.978C169.604 334.235 169.517 334.148 167.6 334.148C165.247 334.148 162.285 337.633 162.285 340.421C162.285 341.641 160.717 342.6 157.057 343.732C152.265 345.126 151.655 345.126 149.999 343.645C148.953 342.687 145.207 335.804 146.165 334.148C147.734 331.273 146.688 328.834 144.161 329.618C141.634 330.402 141.373 329.792 140.153 322.212C139.63 318.727 138.236 314.719 137.103 313.325C135.099 310.799 134.228 307.314 135.796 308.272C136.232 308.533 137.277 306.704 138.236 304.264L139.892 299.734L137.016 297.991C133.705 295.987 133.269 294.245 135.883 292.764C137.016 292.154 135.186 290.934 135.622 289.714C136.145 288.059 135.883 287.885 133.966 288.408C132.747 288.756 130.481 289.627 129.087 290.324C126.124 291.893 122.378 292.067 121.506 290.673C121.158 290.15 106.258 287.188 100.158 286.578C92.4906 285.794 87.4369 284.661 83.8644 283.006C77.4165 280.043 76.0223 279.956 73.234 282.744C71.4042 284.574 70.0101 284.922 64.8692 284.748L58.6827 284.574L56.6786 288.93C55.3716 291.805 53.9774 293.374 52.6704 293.461C42.8243 294.158 40.8202 294.071 40.036 292.938C39.6003 292.241 34.3723 290.411 33.6752 289.366C33.2396 288.756 32.891 287.188 32.891 285.794C32.891 284.4 31.4097 280.828 29.6671 277.691C25.4846 270.808 24.0905 266.452 25.3975 265.581C25.9203 265.232 27.663 264.971 29.3185 264.884C31.2355 264.797 40.036 259.918 41.2559 259.482C43.0857 258.872 43.6956 259.221 44.1313 260.876C44.7412 263.315 45.6126 263.751 51.712 264.622C55.1973 265.145 56.5043 264.971 57.5499 263.664C58.247 262.793 59.7283 262.096 60.861 262.096C61.9938 262.096 63.5622 260.789 64.5206 259.046C65.9148 256.607 66.8733 255.997 69.8358 255.997C71.8399 255.997 74.0182 255.474 74.7153 254.777C75.6738 253.819 76.458 254.167 78.4621 256.52C79.8562 258.175 80.9018 260.179 80.989 260.876C80.989 261.66 81.5989 262.009 82.296 261.747C83.0802 261.486 83.603 259.308 83.603 255.997C83.603 249.288 85.5199 247.459 90.748 249.114C92.6649 249.724 94.2333 250.769 94.2333 251.553C94.2333 253.383 95.8889 253.209 99.3742 251.118C101.553 249.811 102.772 249.637 104.079 250.421C105.299 251.205 106.519 251.118 108.349 250.159C110.179 249.201 110.44 248.853 109.133 248.853C106.171 248.853 107.129 247.023 110.876 245.803C112.793 245.193 114.448 244.322 114.448 243.974C114.448 243.625 115.668 241.97 117.062 240.401L119.676 237.526L121.593 240.401C122.639 241.97 123.423 244.148 123.249 245.28C122.726 249.375 124.382 250.159 127.867 247.459C129.871 245.89 142.506 243.625 144.161 243.277C146.427 242.841 148.518 243.364 152.177 245.28C155.663 247.11 158.102 247.807 160.368 247.371C162.285 247.11 164.812 247.546 166.554 248.417C170.214 250.334 175.616 251.118 179.973 250.334C183.284 249.724 182.064 243.625 184.243 239.269C187.989 232.124 189.471 225.503 187.467 225.503C187.031 225.503 185.724 226.287 184.678 227.333C177.446 233.954 172.828 236.916 169.169 237.439C163.156 238.223 152.526 235.871 147.298 232.56C142.418 229.511 138.41 229.337 136.058 232.212C134.663 233.867 129.523 235.958 128.651 235.174C128.303 234.825 128.825 233.17 129.871 231.427C132.049 227.594 130.742 225.329 127.518 227.333C124.643 229.075 124.469 228.901 125.602 225.59C126.299 223.586 127.693 222.279 129.871 221.495C131.701 220.885 142.244 210.692 143.464 208.775C144.684 206.858 146.339 205.29 147.036 205.29C149.563 205.29 171.87 191.088 172.654 191.088C173.438 191.088 178.928 185.077 183.197 185.512L187.815 186.035L184.765 184.554C183.11 183.77 180.496 183.073 178.928 183.073C176.749 183.073 176.139 182.55 176.139 180.721C176.139 179.501 175.529 177.671 174.745 176.626C173.438 174.883 173.351 174.97 172.828 176.887C171.957 180.024 169.081 179.414 168.384 175.929L167.774 172.879L166.032 176.19C165.073 178.02 164.028 180.721 163.592 182.115C162.808 185.251 161.501 185.948 157.231 185.251C154.966 184.903 152.7 183.247 149.389 179.414C144.074 173.315 144.161 173.053 152.787 170.265C158.712 168.349 160.891 167.042 160.891 165.474C160.891 164.951 159.671 165.386 158.103 166.432C153.659 169.481 151.742 169.917 150.958 167.913C149.912 165.299 146.949 165.561 146.252 168.262C145.904 169.568 144.771 171.137 143.725 171.659C140.501 173.402 139.456 170.701 139.456 160.682C139.456 155.541 139.02 151.446 138.497 151.446C137.975 151.446 137.539 152.231 137.539 153.189C137.539 155.28 135.186 162.163 134.228 163.208C133.879 163.557 133.531 161.204 133.531 157.894C133.531 150.314 132.137 152.143 130.394 161.989C129.174 169.046 131.091 170.004 127.867 165.909C126.734 164.428 125.689 153.015 125.166 152.666C124.556 152.318 124.469 155.541 124.904 161.292C125.34 166.345 125.34 170.962 124.992 171.485C124.12 172.966 118.108 170.614 118.718 169.046C118.979 168.262 113.316 165.125 113.316 165.038C113.316 164.864 118.369 155.28 118.282 154.409C118.282 153.363 117.934 153.537 117.324 154.931C116.801 156.064 112.096 161.814 111.312 160.507C110.789 159.636 110.266 159.462 110.266 160.072C110.266 160.682 108.872 161.989 107.129 162.947C104.864 164.341 103.731 164.515 102.86 163.644C102.25 163.034 100.943 162.511 100.071 162.511C99.1128 162.511 97.6315 161.466 96.7602 160.246C95.1918 158.068 95.1918 158.155 95.1047 163.731C95.0175 168.523 94.669 169.743 92.8392 171.05C90.0509 173.053 85.0843 173.053 82.4702 171.05C81.4246 170.265 79.7691 169.568 78.8977 169.568C75.9352 169.568 60.1639 176.713 58.5955 178.717C57.4628 180.198 55.3716 180.808 50.4921 181.243C42.5629 181.94 39.5132 180.546 37.8577 175.667C37.0735 173.315 35.0694 171.05 31.6711 168.697L26.7045 165.212L16.2484 166.171C5.79237 166.693 1 165.822 1 163.383C1 161.64 8.31925 154.931 10.5847 154.583C11.8917 154.322 12.6759 153.276 12.9374 151.708C13.1116 150.314 14.4186 146.829 15.8128 143.866L18.4268 138.552L21.5636 140.643C23.3063 141.775 26.1817 143.431 28.0115 144.215C30.0156 145.086 39.4261 154.757 40.5588 154.757C42.4758 154.757 42.3886 154.409 39.4261 151.098C36.2021 147.439 34.2852 143.692 34.2852 140.991C34.2852 139.859 35.2436 139.684 38.5547 140.207C40.9073 140.556 43.5214 141.34 44.3927 141.863C45.264 142.385 44.0442 141.166 41.6916 139.162C34.9822 133.324 33.2396 129.752 33.2396 121.998C33.2396 116.422 33.5881 115.115 35.1565 114.244C37.0735 113.198 59.1183 129.142 60.9482 129.926C62.8651 130.711 66.0891 133.324 68.0931 135.677C71.4042 139.597 71.7528 140.381 71.23 144.041C70.62 147.787 70.7072 147.961 72.1013 146.045C72.9726 144.912 78.9849 143.431 79.9434 142.472C81.5118 140.817 81.4246 140.643 78.7235 140.12C75.4995 139.51 69.8358 132.802 71.23 131.32C71.7528 130.798 75.3253 129.926 79.2463 129.404C90.748 127.748 92.4906 127.226 93.7977 125.047C95.0175 123.043 95.0175 123.043 92.752 124.612C89.8766 126.616 76.458 126.877 68.5288 125.047C62.168 123.566 57.4628 119.297 52.5833 110.41C49.6207 105.009 49.7079 101.524 52.7576 98.387C56.3301 94.8149 59.2055 95.2505 66.0891 100.391C69.4001 102.918 72.8855 104.921 73.9311 104.921C74.8896 104.921 77.0679 105.967 78.7235 107.187C80.379 108.406 81.9474 109.191 82.2088 108.929C82.4702 108.668 80.5533 107.1 77.9393 105.444C66.7861 98.2999 56.6786 87.0607 56.6786 81.3976C56.6786 77.9125 58.7698 72.685 60.0768 72.685C62.6908 72.685 68.9645 75.473 71.1428 77.564C72.4498 78.7838 74.2796 79.7422 75.2381 79.7422C76.1966 79.7422 78.0264 80.2649 79.2463 80.7877C80.4662 81.3976 79.6819 80.3521 77.4165 78.5224C66.8733 69.8099 66.5247 69.2871 67.8317 66.3249C68.7902 64.2339 69.8358 63.5369 72.1884 63.5369C74.9767 63.5369 75.151 63.3626 73.5826 62.1429C71.4042 60.4875 71.3171 59.5291 73.3212 59.5291C74.1925 59.5291 77.5036 54.4758 78.3749 54.4758C79.2463 54.4758 80.7276 53.8659 81.686 53.3432C87.2626 50.4681 98.0672 60.6617 99.2 61.0973C101.901 61.9686 105.212 67.3704 105.212 70.9425C105.212 73.5563 105.386 73.6434 107.739 72.5979C111.137 71.0296 113.316 72.9464 113.316 77.4769C113.316 79.7422 113.838 80.8748 114.71 80.8748C115.494 80.8748 120.374 82.1817 121.245 83.2272C121.855 84.0113 122.116 84.8826 121.768 85.2311C120.983 86.0152 122.29 90.023 123.249 90.023C123.685 90.023 124.12 87.6706 124.295 84.7083C124.556 78.6096 124.817 78.0868 126.909 79.8293C127.78 80.5263 129.174 80.7877 130.045 80.5263C131.178 80.0907 132.049 80.9619 133.095 83.4886C133.879 85.4925 138.149 91.9397 138.933 93.3337C140.153 95.599 140.414 95.6861 141.373 94.205C142.331 92.7239 142.593 92.8981 143.551 95.3376C144.161 96.9059 145.294 98.387 146.165 98.7355C147.908 99.4325 149.999 105.967 149.041 107.622C148.605 108.406 148.779 108.406 149.563 107.622C150.348 106.925 150.522 104.486 150.086 100.217C149.563 95.1634 148.692 92.9852 145.904 89.326C143.115 85.6667 142.68 84.447 143.638 83.3143C144.335 82.5302 144.422 81.8332 143.987 81.8332C143.551 81.8332 143.987 81.1362 145.12 80.2649C147.036 78.7838 147.036 78.6967 144.51 79.3066C142.418 79.8293 141.721 79.4808 140.763 77.3027C139.979 75.6473 137.626 73.8177 134.054 72.2494C122.116 66.9347 112.183 58.3965 112.183 53.3432C112.183 50.3809 119.764 46.1118 125.079 46.0247C130.83 46.0247 138.062 48.6384 140.589 51.6878L142.418 53.9531L141.808 51.6878C141.373 49.8582 141.634 49.4225 143.638 49.3354C144.945 49.3354 146.949 48.8127 148.082 48.2899C149.476 47.5929 148.866 47.5058 145.817 47.9414C142.941 48.377 141.547 48.1157 141.547 47.4187C141.547 46.8088 139.456 45.4148 137.016 44.3693C133.879 42.9753 132.485 41.8426 132.485 40.4486C132.485 38.7932 131.962 38.5319 128.564 38.9675C126.386 39.2289 124.382 39.0546 124.033 38.4447C123.597 37.7477 122.465 37.8349 120.635 38.7933C115.233 41.407 111.05 41.4941 106.781 39.0546C104.602 37.7477 101.901 35.4825 100.768 34.0014C99.1128 31.7361 98.9386 31.0391 100.071 29.6451C100.768 28.7738 102.163 28.2511 103.034 28.5125C109.133 30.3421 110.092 30.255 111.224 28.0768C112.183 26.2472 112.096 25.9858 110.702 26.2472C109.743 26.4214 108.436 25.6373 107.826 24.5918C107.216 23.5463 105.822 21.8909 104.777 21.0197C102.947 19.4514 102.947 19.3643 104.951 16.9248C106.606 14.8338 107.303 14.6595 109.307 15.4436C112.444 16.7505 116.54 16.1406 115.93 14.3981C115.145 12.3943 116.452 11.0874 119.938 10.3032C122.552 9.78049 123.597 10.0419 125.514 12.0458C129.435 16.0535 134.402 19.1029 136.058 18.493C136.929 18.1445 138.062 16.4891 138.672 14.8338C139.979 11.0003 141.808 11.0003 145.294 14.8338C146.775 16.4891 148.518 17.8832 149.128 17.8832C149.738 17.8832 149.563 17.4475 148.692 16.9248C147.385 16.0535 147.385 15.705 148.953 14.2239C150.609 12.5685 150.783 12.5685 152.787 14.311C153.92 15.3565 155.314 17.9703 155.924 20.2355C157.057 24.5918 161.501 29.9936 163.766 29.9936C164.725 29.9936 164.986 30.7777 164.463 32.6945C163.853 35.0469 163.94 35.2211 165.335 34.0885C166.642 33.043 166.99 33.043 167.6 34.5241C167.949 35.4825 167.774 37.225 167.252 38.4447C165.945 41.1456 165.77 45.4148 166.99 44.7178C167.513 44.4564 168.123 44.6306 168.471 45.2405C168.907 45.9375 169.691 45.6762 170.65 44.7178C172.741 42.6268 175.442 42.7139 174.658 44.8049C173.699 47.2444 174.832 48.2899 177.446 47.3315C180.147 46.286 183.197 47.68 183.197 49.8582C183.197 50.6423 183.72 51.3393 184.33 51.3393C184.94 51.3393 185.201 52.2106 184.94 53.2561C184.33 55.6084 186.77 59.442 188.861 59.442C189.645 59.442 194.873 62.4042 196.18 63.4497C198.01 65.018 198.271 65.8021 197.487 67.806C196.093 71.3781 196.18 83.3143 197.574 81.9203C198.184 81.3104 199.317 81.0491 200.014 81.3976C200.798 81.7461 201.408 81.3104 201.408 80.3521C201.408 78.5224 204.458 77.3027 206.898 78.261C207.856 78.6096 209.337 80.2649 210.209 82.0074C211.69 84.8826 211.69 85.2311 210.121 86.3637C207.943 87.932 209.86 89.2388 212.387 87.932C213.781 87.1478 215.35 87.6706 218.922 89.8487C221.449 91.417 223.889 93.2466 224.324 93.9436C225.283 95.5119 222.93 96.9059 219.271 96.9059C216.482 96.9059 216.395 96.993 218.225 98.387C219.271 99.1711 219.88 100.217 219.445 100.565C219.009 101.001 220.142 101.872 221.972 102.395C226.241 103.789 228.071 109.016 225.37 111.979C224.324 113.111 223.889 114.679 224.237 115.899C225.021 118.252 221.71 126.354 218.748 129.229L216.569 131.408L218.661 133.15C220.752 134.893 220.752 134.893 217.615 139.423C213.694 145.26 212.997 145.522 206.985 144.651C203.151 144.128 201.757 143.344 200.798 141.514L199.578 139.162L198.446 141.34C195.832 146.306 202.105 151.533 210.644 151.621C212.126 151.621 213.955 152.318 214.652 153.276C215.785 154.67 215.611 155.541 213.607 159.113L211.254 163.295L214.217 160.507C217.441 157.545 219.532 157.022 221.362 158.939C222.93 160.507 221.797 171.659 219.793 174.709C218.486 176.713 218.486 176.974 219.968 176.974C220.839 176.974 221.623 177.584 221.623 178.281C221.623 178.978 222.756 180.633 224.15 181.853C226.503 183.944 226.938 190.827 227.461 191.524C228.942 193.354 229.727 204.419 228.594 206.597C227.461 208.688 229.291 215.919 230.685 215.048C231.992 214.264 232.951 205.464 232.776 196.055C232.602 186.732 233.212 183.073 234.955 183.073C236.523 183.073 238.701 186.297 238.789 188.649C238.876 189.782 240.008 192.918 241.315 195.706L243.755 200.759L243.145 196.229C242.797 193.702 241.925 189.956 241.141 187.778C239.311 182.463 239.398 179.065 241.664 172.182C242.71 168.959 243.842 165.125 244.191 163.557C244.539 161.989 248.373 157.11 252.643 152.666L260.485 144.563L263.796 145.783L267.107 147.003L266.497 153.276C265.887 159.462 265.974 159.636 268.588 160.246C270.07 160.595 272.945 160.42 275.123 159.81C277.215 159.201 279.741 158.678 280.7 158.678C283.575 158.678 285.144 156.238 287.322 148.397C289.762 139.597 289.936 132.627 287.845 128.62C286.974 127.051 280.961 102.918 279.654 91.8526C279.567 91.1556 280.351 88.3676 280.351 85.4053C280.439 80.0036 280.439 80.0036 284.36 78.7838C286.538 78.0868 289.413 77.564 290.808 77.564C292.202 77.564 293.944 76.867 294.816 76.0829C296.645 74.2533 300.044 74.079 301.525 75.8215C305.969 81.0491 316.425 105.27 317.209 105.967C318.08 106.664 318.69 107.971 318.69 108.929C318.69 109.975 320.52 111.543 323.308 112.85C327.142 114.767 328.362 115.986 330.366 120.691C331.76 123.74 332.806 128.01 332.806 130.101C332.806 132.192 333.503 134.805 334.287 135.938C335.769 137.855 335.769 137.855 336.466 135.59C337.25 132.714 340.474 132.627 342.129 135.328C343.698 137.855 345.789 137.942 346.66 135.59C347.009 134.631 347.967 133.063 348.752 132.105C349.797 130.885 349.971 129.926 349.1 128.445C348.403 127.226 348.403 125.309 348.926 123.392C349.623 120.952 342.826 106.49 341.694 105.27C340.038 103.527 339.951 102.656 340.822 101.001C341.432 99.8681 342.826 98.9098 343.959 98.9098C345.789 98.9098 345.963 98.2999 345.702 93.508C345.528 89.326 345.963 87.4963 347.619 85.2311C349.449 82.7044 350.407 82.2688 355.199 82.1817C358.162 82.0946 361.647 82.4431 362.954 82.8787C364.523 83.4886 366.091 80.7006 367.224 80.0036C368.444 79.2194 369.402 77.1284 369.838 74.1662C370.361 70.8554 371.319 68.8515 373.498 67.0219C378.551 62.7527 384.389 64.4952 382.995 69.8099C382.385 72.1623 382.385 72.1623 383.779 69.7228C384.564 68.4159 384.999 66.4991 384.738 65.5407C384.128 63.2755 385.783 62.3171 389.007 63.1012C390.837 63.5369 391.796 64.5824 392.231 66.6734C392.58 68.2416 393.19 69.2871 393.713 69.0258C394.236 68.7644 396.414 69.9841 398.679 71.7266C402.862 75.1245 403.82 78.0868 401.468 80.7006C400.422 81.9203 400.509 81.9203 401.99 80.7006C403.559 79.4808 404.082 79.5679 406.086 81.5718C408.003 83.4886 408.351 84.8826 408.351 91.8526V99.8681L414.973 102.308C421.683 104.747 426.127 109.103 426.127 113.198C426.127 114.244 430.745 126.529 431.529 127.661C432.313 128.794 433.271 132.453 433.62 135.59C434.84 145.26 435.798 142.995 436.06 129.752C436.321 116.073 436.495 116.422 429.699 111.717C427.521 110.236 427.085 109.278 427.608 107.1C428.043 105.183 427.695 103.876 426.562 103.005C424.122 101.001 422.554 96.4703 420.55 85.6667C418.894 76.867 418.894 75.473 420.201 71.4653C421.944 66.2377 421.857 66.3249 437.105 69.0258C447.126 70.7683 450.785 72.1623 449.827 73.6434C449.478 74.1662 451.221 75.9087 453.661 77.564C459.063 81.2233 463.594 87.0607 464.465 91.2427C465.337 95.3376 468.735 96.6445 475.357 95.3376L480.237 94.3792L482.241 86.1023C483.809 79.4808 484.681 77.6512 486.597 76.7799C488.95 75.7344 489.821 72.2494 487.904 71.1168C486.162 70.0713 486.772 67.8931 489.56 64.4952C491.303 62.4914 492.871 61.4458 494.004 61.7943C495.049 62.0557 495.921 61.6201 496.269 60.5746C496.618 59.2677 497.838 58.9192 501.236 59.0063C506.725 59.0935 508.207 59.9647 508.207 62.927C508.207 64.2339 509.078 66.0635 510.211 67.109C511.344 68.1545 512.215 69.8099 512.215 70.7683C512.215 71.8138 512.912 72.5979 513.783 72.5979C516.049 72.5979 535.392 59.5291 536.177 59.7905C539.575 61.0973 544.019 48.7255 541.753 44.4564C540.098 41.407 536.612 28.7738 536.612 25.8987C536.612 24.3304 535.48 21.8038 534.085 20.1484C531.733 17.3604 531.646 16.9248 532.866 12.7428L534.173 8.29936L540.708 8.03799C545.674 7.86374 547.678 8.21224 549.16 9.51912C550.467 10.6517 551.251 10.9131 551.512 10.129C551.774 9.51912 552.819 7.95086 553.865 6.64398C554.91 5.42423 555.869 4.03022 555.869 3.59459C555.869 2.72334 561.62 3.07184 564.321 4.20447C565.715 4.72722 566.325 4.37872 566.761 2.72334C567.371 0.545203 569.81 0.370952 569.375 2.54909C569.2 3.15896 576.171 8.73499 577.391 9.08349C579.221 9.51912 579.395 9.86762 578.349 11.1745C577.478 12.22 577.304 14.0496 577.74 16.9248C578.35 20.4098 578.785 21.0197 580.441 20.584C581.573 20.2355 589.59 24.3304 591.332 26.0729C595.079 29.8193 595.341 33.3915 592.465 39.4031C590.113 44.2822 589.938 45.3277 591.681 44.9792C592.465 44.8049 592.988 45.8504 592.988 47.7672C592.988 50.3809 593.337 50.8166 595.689 50.8166C597.17 50.8166 603.706 52.9947 604.577 53.8659C609.805 58.745 612.245 60.4875 614.074 60.4875C615.643 60.4875 615.904 59.9647 615.556 58.2222C613.726 50.5552 613.639 48.2028 615.294 46.4603C616.427 45.2405 617.908 44.8049 620 45.0663C624.269 45.6762 628.974 43.498 629.759 40.5358C630.107 39.2289 636.816 29.0352 640.65 26.1601C643.7 23.8077 646.575 21.978 647.098 21.978C647.534 21.978 648.754 22.8493 649.625 23.9819C651.629 26.3343 654.417 26.5086 659.994 24.4176C662.259 23.6334 665.135 22.9364 666.529 22.9364H668.969L666.703 25.3759C664.612 27.6412 661.737 29.1223 653.633 32.0846C651.629 32.8687 650.322 34.0014 650.322 35.134C650.322 36.1795 648.492 38.0091 645.791 39.5774C643.264 41.0585 641.26 42.4525 641.26 42.7139C641.26 42.9753 642.219 44.4564 643.351 46.0247C647.708 51.9492 642.132 63.624 633.592 66.4991C631.153 67.2832 630.107 68.2416 630.107 69.7228C630.107 71.291 630.543 71.6395 631.85 71.0296C637.165 68.8515 637.339 68.9386 636.816 73.9048C636.468 77.3898 636.642 78.4353 637.601 77.9997C638.385 77.9125 647.97 80.0036 648.841 81.1362C649.974 82.6173 650.322 82.5302 652.762 80.0907C654.243 78.6095 655.463 77.1284 655.463 76.6928C655.463 76.2572 656.683 75.473 658.164 74.776C661.998 73.0335 663.828 75.0374 667.139 85.0568C669.666 92.5496 669.84 93.7694 668.707 97.9514C667.4 103.005 663.567 109.191 659.21 113.373C656.16 116.335 657.119 123.741 658.6 119.907L655.376 128.445C655.376 128.445 671.67 124.612 681.516 119.123C684.392 117.555 687.267 116.248 687.703 116.248C689.62 116.248 689.881 119.82 688.225 124.612C686.57 129.491 686.657 129.665 688.835 132.017C690.055 133.324 694.586 136.722 698.856 139.51C706.785 144.738 709.66 145.435 715.76 143.692C719.768 142.56 725.606 145.086 724.996 147.613C724.735 148.571 725.432 149.878 726.477 150.488C727.523 151.098 728.394 152.318 728.394 153.189C728.394 155.106 729.788 155.106 731.444 153.189C732.141 152.318 733.099 151.708 733.622 151.708C735.365 151.708 740.506 158.329 740.506 160.507C740.506 161.727 741.029 163.034 741.639 163.383C742.248 163.731 742.423 164.777 741.987 165.735C741.639 166.693 741.116 170.004 741.029 173.141C740.593 181.592 738.415 185.077 733.448 185.164H730.921L733.187 186.732C736.585 189.085 735.888 191.088 731.095 193.267C727.349 194.922 727.174 195.183 729.44 195.27C730.921 195.27 733.535 194.835 735.278 194.138C739.722 192.57 746.169 195.88 745.821 199.452C745.037 205.987 740.68 210.43 734.929 210.43C733.622 210.43 732.141 210.953 731.792 211.563C731.27 212.347 731.792 212.521 733.535 212.086C740.941 210.082 743.381 210.169 744.601 212.434C746.17 215.309 745.124 219.578 742.858 219.578C741.464 219.578 744.688 223.063 744.688 223.848C744.688 224.545 745.821 223.063 747.215 220.45C751.398 212.434 753.053 212.608 753.227 221.147C753.314 224.196 753.663 226.984 754.099 227.42C756.016 229.337 754.709 233.867 751.746 236.132C749.393 237.875 748.783 239.007 749.132 240.837C749.393 242.231 745.995 246.326 743.817 246.849C739.46 247.981 737.979 247.284 732.141 241.97C728.133 238.223 721.511 235.435 721.511 237.439C721.511 238.31 719.942 239.182 717.677 239.617C714.104 240.314 714.017 240.401 716.37 241.098C717.764 241.534 720.726 241.883 722.905 241.97C725.432 242.057 727.697 242.841 729.004 244.148C732.838 247.981 741.203 253.993 743.12 254.429C748.784 255.474 743.207 259.308 735.713 259.482L732.054 259.569L735.365 260.963C741.116 263.49 741.29 270.285 735.626 272.202C732.925 273.161 732.664 273.422 734.406 273.509C737.282 273.596 737.369 275.164 734.406 276.733C733.187 277.43 731.531 278.562 730.747 279.259C729.178 280.828 722.818 278.562 722.295 278.562C721.598 278.562 723.166 283.703 724.037 283.964C726.129 284.748 725.954 288.32 723.515 291.718C721.598 294.419 714.278 297.817 710.183 297.817C707.046 297.817 701.818 294.768 699.291 291.37C696.503 287.623 692.146 284.051 692.146 285.532C692.146 286.055 693.541 287.536 695.196 288.669C697.113 289.976 703.387 300.082 704.781 300.431C707.308 301.041 708.876 303.393 707.831 305.048C707.482 305.571 704.171 305.745 699.989 305.484C694.76 305.048 693.366 305.223 695.022 305.92C696.242 306.442 697.287 307.575 697.287 308.272C697.287 310.189 689.707 316.113 687.18 316.113C684.13 316.113 684.304 320.905 687.354 322.125C689.271 322.909 690.404 322.299 694.76 317.769C697.549 314.894 700.163 311.67 700.598 310.712C701.557 308.272 704.781 308.969 705.129 311.757C705.478 314.284 703.125 318.379 698.856 322.648C696.939 324.565 695.719 326.83 695.545 328.921C695.37 330.75 694.76 333.19 694.151 334.323C693.541 335.455 693.279 336.326 693.453 336.326C693.715 336.326 693.366 338.417 692.756 340.944C691.624 345.388 691.362 345.649 683.869 348.873C670.712 354.536 665.919 359.502 667.313 365.862C667.749 368.04 667.488 368.911 665.919 369.695C664.786 370.305 663.741 371.786 663.567 373.093C663.305 375.184 662.521 375.446 655.202 376.143C650.758 376.578 646.924 376.666 646.75 376.404C646.488 376.143 646.575 375.272 646.924 374.4C647.36 373.355 648.841 372.832 651.542 372.832C656.596 372.832 657.293 371.699 654.243 368.911C652.239 366.995 651.803 366.907 651.281 368.214C650.932 369.086 649.886 369.783 648.841 369.783C647.882 369.783 646.488 370.654 645.791 371.786C644.223 374.313 642.48 374.4 642.48 372.048C642.48 370.044 639.169 366.733 637.165 366.733C636.468 366.733 634.812 365.949 633.505 365.078C631.24 363.51 631.153 363.51 632.285 365.513C633.941 368.563 633.68 369.783 631.414 369.783C629.933 369.783 629.41 370.48 629.41 372.396C629.41 375.01 629.41 375.01 635.771 374.4C642.044 373.79 645.443 374.662 644.31 376.578C643.961 377.101 639.866 377.885 635.161 378.321C623.659 379.279 616.34 381.719 611.025 386.336C608.672 388.427 605.535 390.431 604.141 390.693C599.087 391.825 593.075 396.269 586.017 403.849C582.096 408.118 576.258 414.826 573.209 416.83C568.591 419.793 567.109 421.448 564.931 426.24C563.45 429.464 552.732 440.79 549.857 446.714C548.201 450.025 546.197 453.074 545.413 453.336C541.753 454.73 525.721 456.908 514.48 457.431C494.004 458.389 473.876 465.011 468.386 472.503C467.515 473.636 465.685 477.557 464.204 481.129C462.723 484.788 460.022 490.713 458.105 494.285C453.574 503.084 447.91 506.744 429.873 512.494C422.38 514.846 412.359 518.244 407.567 519.9C399.028 522.601 392.928 523.559 388.485 522.688ZM193.566 357.324C194.089 357.324 195.919 358.021 197.661 358.892C199.578 359.937 201.147 360.112 201.757 359.502C202.367 358.892 200.885 357.934 197.661 356.888C190.952 354.71 190.778 354.71 186.421 358.631C183.371 361.331 182.936 362.203 184.156 362.987C185.201 363.684 186.595 362.987 189.122 360.634C191.039 358.805 193.043 357.324 193.566 357.324ZM176.313 332.493C179.276 330.925 182.326 326.917 180.496 326.917C179.973 326.917 178.23 327.962 176.662 329.269C175.094 330.576 172.915 332.144 171.783 332.754C169.953 333.8 169.953 333.887 171.608 333.887C172.48 334.061 174.658 333.364 176.313 332.493ZM123.423 93.508L123.336 90.4586L122.552 93.508C122.116 95.1634 121.768 97.4286 121.768 98.5613C121.681 100.565 121.681 100.565 122.552 98.5613C123.075 97.4286 123.423 95.1634 123.423 93.508ZM414.886 99.781C413.579 95.599 413.492 90.8942 414.799 90.8942C417.849 90.8942 420.724 98.5613 418.284 100.13C416.28 101.349 415.322 101.262 414.886 99.781Z" stroke="#333333"/>
</svg>
