<svg xmlns="http://www.w3.org/2000/svg" viewBox="0 0 870.1 523">
  <defs>
    <style>
      .cls-1 {
        fill: #f2f0e9;
      }

      .cls-2 {
        fill: #333;
      }

      .cls-3 {
        fill: none;
        stroke: #333;
      }
    </style>
  </defs>
  <title>landakort´texti</title>
  <g id="Layer_2" data-name="Layer 2">
    <g id="Layer_1-2" data-name="Layer 1">
      <path class="cls-1" d="M222.69,437.66l3.66-15.59,1.82-24.29L241,415.66l25.15-8.26s9.6,7.8,18.74,10.32l1.83,19.94s-18.81-.94-32-.94S222.69,437.66,222.69,437.66Z"/>
      <path class="cls-1" d="M278.34,403.12s9.05,5.59,16.1,1.52,10.07-12.44,6.53-19.56-12.32-8.64-12.32-8.64l4,11.82-13-1.4,2.77,14.48Z"/>
      <path class="cls-1" d="M297.25,438.52,296,415.22s12.69-4.28,15.7-13.81a32.56,32.56,0,0,0-.09-20l104-85.7h88.27L648,311.64l134,39.7s-5.08,3.18-6.66,8.27-1.27,7.54-1.27,7.54H747.38l-12.71,12.46-22.86,7.62L659.1,446.31s-37.47,4.75-63.5,13l-14.29,9.84-16.19,25.42L521.28,516.5l-25.21-6.35-18.93,3.48L432.05,493.3,404.1,493l-56.22-52.72-14-4.76L328,426l-6.38,8.43L305,439.14Z"/>
      <path class="cls-1" d="M302,374.59l-12.84-5.47,7.33-8.87h4.1l2.56-4.76-7.59-2.22L273.3,371.51l-6.82.34,5.8-11.6-4.42-1.7,3.07-4.09-.35-7.67L282,338.1l2.81,1.36,1.33-4.43,17.69-16.37-31,12.28-6.32,7.83-10.39-26.93,2.72-18.24-66.88-19.09-6.46,6-14-.33L159.71,289l-13-17.56-2.89-8.18,9-1.19,10.08-3.2,10.07,8,17.4-11.09,12.45,5.63.33-10.23h12.62l6,6.65,14-15.52,7.86,12.45,7.5-8.35L302.82,252l-3.76-9.73,8.71-14.48-4.61-7.5-13.64,12.45L280,237,247.9,224.56l36.5-28,18.07-1,102,93.76Z"/>
      <path class="cls-1" d="M274.31,183.52,284,172.68l20.92,10.84H328l7.34-15.72-23.63-29.27,21.17,7.59,5.72-31.43L330.48,109l6.24-7.59L321,91.65l-5.7-19.24L303.32,61.84,288.11,54,267.45,21.2l-6,8.67L238.67,21.2,237,30.68l-11.68,9.49L249,44l6-4.87,1.63,7L268,56.43l-29.05.81V68.08l26.62,16,9.5,18.28-4.88,24.8-5.72-22.77-8.14,12,1.1-19-12.51-8.41L234.06,94.1l-1.64-13.29-4.89-9.21L208,60l-16,6.24,14.38,21.67-25.25-9.21-3.8,5.42,28.51,27.36-28.51-9.08L168.6,112l22.53,12.21,25.27,4.61L199.56,135l-1.37,7.31-39.65-20L165.07,157l-19.85-14.1-19,21.15,40.19,15.45L198.73,170,224,166.46l41.29,4.33Z"/>
      <path class="cls-1" d="M316.37,193.88l99.82,89.2,89.12.37,115.05,12.3,38.32-98.46,34.58-51.63,57-61.37-13.39-8.87,16.86-16.17-4.37-11.72,30.82-15.16V28.23l-17.3,4.7-5.37-4.7L745,33.36l-4.8,13.18-15.08,7.12-.89,15.07L713.49,57.24l-16.74-7.36,9.61-17.74-21.21-6.46,1.56-8.48-11.17-7.13L664,23l-7.92-7.36-10.83,4.14L647.2,36.5l10.94,16.83-8.49,13.5-23.12,11-6.69-16.06L605.22,69l.46,10.27-6.82,4.57-1.67,16.95-15.86,2.89L564.59,80.78,535,74.19l6,23.08L551,111.21l2.81,44.07-17.2-47.18-15-6.92L517.5,82.67,501.65,69.85,489.7,71.07,476,87.36l-21.31,1.56,4.35,14.5-9.82,4.34,13.62,33.35-21.66-.79-2.56-20-7.82-.66L412,79,394,89.25l2.57,68.05-19.1,7-.65-17.56-16.4,11.78-6.28,29.24-5.91-3.47-1.93,20.38-7.65-11Z"/>
      <path class="cls-1" d="M632.65,299l36.79-95.12,33.51-52L769,80.33l13.7-4.4,6.12,14.94L782.23,108l-8.07,13.46,2.45,17.65,18.84-12.26L810.36,120l-5.62,16.92,24.71,14.46,12.24-7.11L840.47,161l17.86.5,1.73,18.14L849.29,185l-12,14.69,21.29-6.61,3.43,11-18.59,9.81,25,.25,1.72,19.12-5.62,9.06-26.92-6.61,21.29,15.19-20.79,33.57-10.27,5.38s-22.76-11.27-24.21-10,23,19.16,23,19.16-15.67,3.64-16.14,5.09,5.62,7.61,5.62,7.61l-4.9,6.86,2.93,21.32s-16.39-.25-24.71,3.18L650.89,301.63Z"/>
      <path class="cls-2" d="M10.39,377.83l-7.64,1.06-.87-6.26L0,372.89,2,387l1.88-.26L3,380.47l7.65-1.05.87,6.3,1.88-.26-1.95-14.15-1.88.26Z"/>
      <path class="cls-2" d="M21.83,372.1l1.79-.21-.25-2.06-1.79.21Zm3.73-.43,1.79-.21-.24-2.07-1.79.21Zm-5.33,7.71a5.68,5.68,0,0,0,1.8,3.7,4.77,4.77,0,0,0,3.89,1.07,4.75,4.75,0,0,0,3.54-1.95,5.7,5.7,0,0,0,.9-4,5.6,5.6,0,0,0-1.81-3.69,4.75,4.75,0,0,0-3.89-1.1,4.79,4.79,0,0,0-3.54,2A5.62,5.62,0,0,0,20.23,379.38Zm8.34-1a4.1,4.1,0,0,1-.62,3,3,3,0,0,1-2.2,1.31,3.06,3.06,0,0,1-2.47-.76,4.84,4.84,0,0,1-.67-5.7,3.09,3.09,0,0,1,2.22-1.33,3,3,0,0,1,2.45.78A4.09,4.09,0,0,1,28.57,378.4Z"/>
      <path class="cls-2" d="M39.93,372l-.17-1.69c0-.5.2-.77.76-.82l1-.11-.15-1.49-1.33.14a2,2,0,0,0-2,2.19l.2,1.95-1.71.18.15,1.45,1.71-.17.9,8.83,1.75-.18-.9-8.83,1.95-.2-.15-1.45Z"/>
      <path class="cls-2" d="M56.93,375.89c.22,2.58-.73,3.68-2.74,3.85-1.52.13-2.43-.43-2.59-2.24L51,370.9l-1.8.16.59,6.77c.2,2.31,1.64,3.65,4.25,3.43a3.27,3.27,0,0,0,3.13-2.76h0l.19,2.23,1.7-.15-.89-10.3-1.79.16Z"/>
      <path class="cls-2" d="M74.19,371.22a3.52,3.52,0,0,0-3.48-1.65,4.33,4.33,0,0,0-3.35,1.7,5,5,0,0,0-1,3.57,5.63,5.63,0,0,0,1.58,3.78,5.25,5.25,0,0,0,7.38-.5,5.67,5.67,0,0,0,1-4,9.4,9.4,0,0,0-4-7.4l2.23-1.22-.75-.69-2.32,1.28c-.49-.35-1-.67-1.61-1l-1.54,1A5.38,5.38,0,0,1,70,367l-2.1,1.17.81.75L71,367.65a9.44,9.44,0,0,1,1.68,1.45,9.28,9.28,0,0,1,1.59,2.12Zm-6.06,3.5c-.14-2.09.89-3.53,2.88-3.66a3.13,3.13,0,0,1,3.55,3.22c.16,2.42-1.12,4-3,4.11S68.3,377.13,68.13,374.72Z"/>
      <path class="cls-2" d="M88.63,368.06a3.19,3.19,0,0,0-3.18,2.46h-.06l-.26-6-1.81.09.7,14.26,1.74-.08-.1-2h0a3.41,3.41,0,0,0,3.45,2.05,4.24,4.24,0,0,0,3.42-1.69,6.76,6.76,0,0,0-.39-7.73A4.13,4.13,0,0,0,88.63,368.06Zm.22,9.32a2.62,2.62,0,0,1-2.47-1,5.37,5.37,0,0,1-.86-2.86v-.12c-.05-2.14,1-3.65,2.92-3.75a2.66,2.66,0,0,1,2.39,1,4.33,4.33,0,0,1,.93,2.63,5.17,5.17,0,0,1-.6,2.9A2.61,2.61,0,0,1,88.85,377.38Z"/>
      <path class="cls-2" d="M100.25,373a5.66,5.66,0,0,0,1.48,3.83,5.35,5.35,0,0,0,7.48-.23,6.2,6.2,0,0,0-.24-7.75,5.3,5.3,0,0,0-7.48.23A5.62,5.62,0,0,0,100.25,373Zm8.4-.26a4.07,4.07,0,0,1-.87,2.89,3.18,3.18,0,0,1-4.7.14,4.85,4.85,0,0,1-.18-5.74,3.12,3.12,0,0,1,2.33-1.13,3,3,0,0,1,2.37,1A4.13,4.13,0,0,1,108.65,372.71Z"/>
      <path class="cls-2" d="M123.65,367.19a3.39,3.39,0,0,0-4.08,2.68h0l0-2.58-1.7,0,.15,10.33,1.8,0-.07-4.6c0-3,1.5-4.51,4-4.14Z"/>
      <path class="cls-2" d="M138.5,369.15h0a3.38,3.38,0,0,0-3.33-2.22,4.2,4.2,0,0,0-3.5,1.53,5.88,5.88,0,0,0-1.23,3.84,6.09,6.09,0,0,0,1.24,3.88,4.26,4.26,0,0,0,3.52,1.57,3.27,3.27,0,0,0,3.3-2.5h0v2c0,2.16-.77,3-3.11,3-1.34,0-2.5-.43-2.58-1.55H131c.12,2.18,2.22,3.1,4.38,3,3.54,0,4.9-1.54,4.91-4.48V367.17h-1.8Zm-3.16,7a2.49,2.49,0,0,1-2.26-1.17,5.36,5.36,0,0,1-.7-2.78c0-2.16,1.05-3.76,3.11-3.75,2.24,0,2.93,2.18,2.93,3.48C138.6,373.91,137.64,376.11,135.34,376.13Z"/>
      <path class="cls-2" d="M156.58,370.81a3.59,3.59,0,0,0-.35-1.77,2.54,2.54,0,0,0-.66-1,5,5,0,0,0-3.19-1c-1.87,0-3.15.54-3.79,1.73a4.7,4.7,0,0,0-.41,1.47l1.8,0a2.44,2.44,0,0,1,.36-1,2.28,2.28,0,0,1,2.06-.76c1.54,0,2.41.59,2.39,1.55,0,.78-.18,1-1.37,1.35a6.31,6.31,0,0,1-1.14.16c-.56.05-1.08.12-1.58.21a9.64,9.64,0,0,0-1.55.41,2.65,2.65,0,0,0-1.77,2.59c0,1.32.54,3,3.7,3.05,2,0,3.32-.82,3.67-2.47h0a17.4,17.4,0,0,0,0,2.3l1.8,0a5,5,0,0,1-.14-1.4Zm-1.84,2.11c-.05,2.61-1.21,3.61-3.43,3.57-1.3,0-2.09-.7-2.07-1.66,0-1.28.79-1.7,2.64-2s2.69-.67,2.89-1.56Z"/>
      <path class="cls-2" d="M170.07,367.78a3.41,3.41,0,0,0-4.21,2.48h0l.09-2.58-1.7-.06L163.86,378l1.8.06.15-4.6c.11-3,1.72-4.42,4.2-3.94Z"/>
      <path class="cls-2" d="M176.34,375.38a3,3,0,0,0,1.19,2.6,5.54,5.54,0,0,0,3,.89,5,5,0,0,0,3.9-1.13,2.68,2.68,0,0,0,.83-1.9,2.23,2.23,0,0,0-1-2.13,7.23,7.23,0,0,0-2.26-1c-.17-.05-.43-.12-.79-.2l-.79-.2-.65-.23c-.68-.28-1.09-.66-1-1.32,0-1,1.07-1.33,2.24-1.27,1.34.07,2.15.43,2.38,1.72l1.66.09a3.11,3.11,0,0,0-1.16-2.49,5.63,5.63,0,0,0-2.92-.78,4.94,4.94,0,0,0-2.74.62,2.4,2.4,0,0,0-1.26,2.12,2.36,2.36,0,0,0,1.52,2.42,9.31,9.31,0,0,0,2,.66c.41.1.71.18.9.25a6,6,0,0,1,.79.26,2,2,0,0,1,.68.37,1.5,1.5,0,0,1,.57,1.21,1.25,1.25,0,0,1-.88,1.18,4.76,4.76,0,0,1-1.9.27c-1.66-.09-2.53-.73-2.57-1.95Z"/>
      <path class="cls-2" d="M197,378h0l-2.43-8.93-2.05-.14,3.38,10.6,2.05.13,4.71-10-2-.14Z"/>
      <path class="cls-2" d="M220.13,380.16c-2-.18-3-1.73-2.79-3.66l7.55.67c.35-3.93-1-6-4.12-6.31a4.07,4.07,0,0,0-3.43,1.12,4.07,4.07,0,0,0-3.42-1.72c-3.69-.33-4.18,2-4.32,2.73l0,.18,1.8.15a2.28,2.28,0,0,1,.42-1c.3-.48,1-.72,2-.63,1.56.14,2.29.71,2.2,1.7-.06.7-.08,1-1.37,1.27a7.29,7.29,0,0,1-1.15.08,16,16,0,0,0-1.6.1,9.4,9.4,0,0,0-1.57.3,2.67,2.67,0,0,0-2,2.46c-.11,1.31.34,3,3.49,3.3,1.93.17,3.32-.59,3.81-2.22l.14-.51a4.21,4.21,0,0,0,4.06,3.43,4.26,4.26,0,0,0,4.77-3.09l-1.74-.15A2.49,2.49,0,0,1,220.13,380.16Zm.51-7.8a2.76,2.76,0,0,1,2.59,3.16l-5.76-.51A2.76,2.76,0,0,1,220.64,372.36Zm-4.86,3.86c-.23,2.61-1.38,3.54-3.59,3.34-1.3-.11-2-.84-1.95-1.8.11-1.27.91-1.64,2.77-1.82s2.67-.47,2.91-1.35Z"/>
      <path class="cls-2" d="M240.1,375.2A3.51,3.51,0,0,0,237,373a4.35,4.35,0,0,0-3.6,1.07,5.11,5.11,0,0,0-1.64,3.34,5.73,5.73,0,0,0,.89,4,5.26,5.26,0,0,0,7.36.81,5.69,5.69,0,0,0,1.73-3.71,9.42,9.42,0,0,0-2.62-8l2.4-.8-.61-.82-2.51.85c-.41-.42-.89-.84-1.41-1.28l-1.69.74a5.52,5.52,0,0,1,1.49,1.11l-2.28.78.67.87,2.4-.82a9.13,9.13,0,0,1,1.4,1.73,8.86,8.86,0,0,1,1.19,2.36Zm-6.58,2.37c.23-2.09,1.49-3.32,3.48-3.1a3.13,3.13,0,0,1,2.92,3.8c-.26,2.41-1.79,3.73-3.62,3.53S233.26,380,233.52,377.57Z"/>
      <path class="cls-2" d="M252.11,370.55l-1.83-.23-.26,2.06,1.83.23Zm-3.58,13.94,1.79.23,1.28-10.26-1.79-.23Z"/>
      <path class="cls-2" d="M267.07,378.64a3.49,3.49,0,0,0-3.06-2.32,4.32,4.32,0,0,0-3.63,1,5.11,5.11,0,0,0-1.73,3.3,5.69,5.69,0,0,0,.77,4,5.25,5.25,0,0,0,7.33,1,5.69,5.69,0,0,0,1.84-3.66,9.44,9.44,0,0,0-2.39-8.06l2.43-.74-.59-.82-2.54.77a17.45,17.45,0,0,0-1.37-1.32l-1.71.69a5.68,5.68,0,0,1,1.46,1.15l-2.3.71.64.9,2.43-.75a9.43,9.43,0,0,1,1.35,1.76,9,9,0,0,1,1.11,2.4Zm-6.64,2.19c.29-2.08,1.59-3.28,3.57-3,2.2.31,3.08,1.9,2.81,3.89-.34,2.39-1.91,3.67-3.73,3.41S260.1,383.22,260.43,380.83Z"/>
      <path class="cls-2" d="M173.48,463.89a6.78,6.78,0,0,0-.75-2.33,2.23,2.23,0,0,0-1.46-1.12,3.58,3.58,0,0,0,3-3.68c.13-2.32-1.44-3.95-4.5-4.12l-6.07-.33-.79,14.25,1.9.11.33-6,3.77.21c1.5.08,2.23,1.06,2.6,2.71,0,.14.09.48.16,1A10.1,10.1,0,0,0,172,466a4.39,4.39,0,0,0,.52,1.07l2.06.11V467a5.08,5.08,0,0,1-.69-1.32A16.57,16.57,0,0,1,173.48,463.89ZM165.54,454l4.17.23c1.86.11,2.76.92,2.67,2.41q-.15,2.85-3,2.68l-4.09-.23Z"/>
      <path class="cls-2" d="M186.57,457.14a4.92,4.92,0,0,0-3.73,1.4,5.37,5.37,0,0,0-1.64,3.78c0,3.28,1.73,5.51,5,5.64a4.3,4.3,0,0,0,4.71-3.34l-1.76-.07a2.59,2.59,0,0,1-2.89,1.91q-3.15-.12-3.29-3.51l8.17.32C191.37,460.76,190.31,457.29,186.57,457.14Zm-3.47,4.29a3.36,3.36,0,0,1,3.41-2.81,3,3,0,0,1,2.89,3.06Z"/>
      <path class="cls-2" d="M202.62,466.29l-2.83-8.46-1.92,0,3.83,10.9-.3.75a1.7,1.7,0,0,1-1.53,1.24l-1.14,0,0,1.5,1.4,0a2.61,2.61,0,0,0,2.67-1.94L207.55,458l-1.8,0Z"/>
      <path class="cls-2" d="M222.91,468.58,218.28,462l4.32-3.75-2.33,0-4.85,4.27.09-8.26-1.8,0-.16,14.28,1.8,0,0-4,1.58-1.36,3.78,5.44Z"/>
      <path class="cls-2" d="M231.86,454.32H230v2.08h1.84Zm0,3.94H230v12.12c0,.44-.3.66-.92.66h-1v1.5H230c1.26,0,1.9-.66,1.9-2Z"/>
      <path class="cls-2" d="M248.1,461.53a3.64,3.64,0,0,0-.4-1.76,2.39,2.39,0,0,0-.69-.93,5,5,0,0,0-3.21-.9c-1.88,0-3.13.64-3.74,1.84a4.25,4.25,0,0,0-.36,1.49l1.8,0a2.2,2.2,0,0,1,.33-1,2.25,2.25,0,0,1,2-.82c1.54,0,2.42.51,2.43,1.47,0,.78-.14,1-1.32,1.39a6.05,6.05,0,0,1-1.14.2,13.89,13.89,0,0,0-1.57.26,10.13,10.13,0,0,0-1.54.45,2.69,2.69,0,0,0-1.69,2.65c0,1.32.64,3,3.8,2.93,2,0,3.29-.92,3.59-2.58h0a16.3,16.3,0,0,0,.11,2.29l1.8,0a5.16,5.16,0,0,1-.18-1.39Zm-1.77,2.16c0,2.62-1.1,3.65-3.32,3.68-1.3,0-2.11-.64-2.12-1.6,0-1.28.74-1.73,2.58-2.09s2.67-.75,2.84-1.65Z"/>
      <path class="cls-2" d="M260.46,457.61a3.27,3.27,0,0,0-3.29,2.57h0l-.06-2.24-1.7.05.28,10.33,1.8,0-.15-5.48c-.07-2.58.94-3.63,3-3.68,1.52,0,2.4.57,2.45,2.39l.18,6.62,1.79-.05-.18-6.8C264.44,459,263.08,457.54,260.46,457.61Z"/>
      <path class="cls-2" d="M276.81,457.05a4.93,4.93,0,0,0-3.61,1.69,5.33,5.33,0,0,0-1.31,3.9c.23,3.27,2.16,5.35,5.44,5.21a4.3,4.3,0,0,0,4.43-3.71l-1.76.08a2.59,2.59,0,0,1-2.73,2.13c-2.1.09-3.29-1-3.56-3.23l8.17-.34C281.89,460.25,280.55,456.89,276.81,457.05Zm-3.11,4.55a3.37,3.37,0,0,1,3.18-3.08,3,3,0,0,1,3.12,2.82Z"/>
      <path class="cls-2" d="M288.86,464a3,3,0,0,0,1.46,2.46,5.59,5.59,0,0,0,3,.56,5,5,0,0,0,3.76-1.53,2.69,2.69,0,0,0,.63-2,2.27,2.27,0,0,0-1.2-2,7,7,0,0,0-2.35-.72c-.18,0-.44-.08-.8-.12l-.81-.11-.67-.16c-.72-.2-1.16-.54-1.19-1.2-.06-1,.92-1.43,2.1-1.5,1.33-.08,2.17.2,2.54,1.46l1.66-.1a3.07,3.07,0,0,0-1.42-2.34,5.69,5.69,0,0,0-3-.47,4.93,4.93,0,0,0-2.65.91,2.41,2.41,0,0,0-1,2.24,2.35,2.35,0,0,0,1.77,2.25,10.32,10.32,0,0,0,2.11.44,7.94,7.94,0,0,1,.92.15,6,6,0,0,1,.82.17,2,2,0,0,1,.71.3,1.45,1.45,0,0,1,.69,1.14,1.25,1.25,0,0,1-.75,1.27,4.54,4.54,0,0,1-1.85.46c-1.66.1-2.59-.45-2.76-1.66Z"/>
      <path class="cls-2" d="M718.34,229.5l-5.62-14.28h-2.1L705,229.5h2l1.7-4.56h5.82l1.68,4.56Zm-6.68-12.72,2.36,6.64h-4.78l2.38-6.64Zm14.85,7.86c0,2.58-1,3.6-3.06,3.6-1.52,0-2.38-.64-2.38-2.46v-6.62h-1.8V226c0,2.32,1.32,3.78,3.94,3.78a3.28,3.28,0,0,0,3.36-2.48h0v2.24h1.7V219.16h-1.8Zm3.39,1.82a3,3,0,0,0,1.32,2.54,5.56,5.56,0,0,0,3,.74,5,5,0,0,0,3.84-1.32,2.67,2.67,0,0,0,.74-1.94,2.25,2.25,0,0,0-1.08-2.08,7.07,7.07,0,0,0-2.3-.86c-.18,0-.44-.1-.8-.16l-.8-.16-.66-.2c-.7-.24-1.12-.6-1.12-1.26,0-1,1-1.38,2.18-1.38,1.34,0,2.16.32,2.46,1.6h1.66a3.09,3.09,0,0,0-1.28-2.42,5.66,5.66,0,0,0-3-.64,4.9,4.9,0,0,0-2.7.76,2.42,2.42,0,0,0-1.16,2.18,2.36,2.36,0,0,0,1.64,2.34,9.83,9.83,0,0,0,2.08.56c.42.08.72.14.92.2a7.25,7.25,0,0,1,.8.22,2.06,2.06,0,0,1,.7.34,1.47,1.47,0,0,1,.62,1.18,1.25,1.25,0,0,1-.82,1.22,4.57,4.57,0,0,1-1.88.36c-1.66,0-2.56-.6-2.66-1.82Zm15.38-7.3h-2.06v-3.3h-.06l-1.7.84v2.46h-1.7v1.48h1.7v6.88c0,1.26.42,2,1.7,2h2V228H744c-.62,0-.76-.16-.76-.64v-6.7h2.06Zm9,5.48c0,2.58-1,3.6-3.06,3.6-1.52,0-2.38-.64-2.38-2.46v-6.62H747V226c0,2.32,1.32,3.78,3.94,3.78a3.28,3.28,0,0,0,3.36-2.48h0v2.24h1.7V219.16h-1.8Zm9.89-5.52a3.4,3.4,0,0,0-4.12,2.62h0v-2.58h-1.7V229.5h1.8v-4.6c0-3,1.56-4.48,4.06-4.08Zm1.57,10.38h1.8V215.22h-1.8Zm12.68-6.94a3.6,3.6,0,0,0-.38-1.76,2.48,2.48,0,0,0-.68-.94,5,5,0,0,0-3.2-.94c-1.88,0-3.14.6-3.76,1.8a4.36,4.36,0,0,0-.38,1.48h1.8a2.37,2.37,0,0,1,.34-1,2.26,2.26,0,0,1,2-.8c1.54,0,2.42.54,2.42,1.5,0,.78-.16,1-1.34,1.38a6.66,6.66,0,0,1-1.14.18c-.56.06-1.08.14-1.58.24a10,10,0,0,0-1.54.44,2.65,2.65,0,0,0-1.72,2.62c0,1.32.6,3,3.76,3,2,0,3.3-.88,3.62-2.54h0a18.56,18.56,0,0,0,.08,2.3h1.8a5.28,5.28,0,0,1-.16-1.4Zm-1.8,2.14c0,2.62-1.14,3.64-3.36,3.64-1.3,0-2.1-.66-2.1-1.62,0-1.28.76-1.72,2.6-2.06s2.68-.72,2.86-1.62Zm9.14-5.78a3.28,3.28,0,0,0-3.36,2.48h0v-2.24h-1.7V229.5h1.8V224c0-2.58,1-3.6,3.06-3.6,1.52,0,2.38.64,2.38,2.46v6.62h1.8v-6.8C789.7,220.38,788.38,218.92,785.76,218.92Zm13.69,2.3h-.08a3.2,3.2,0,0,0-3.3-2.3,4.19,4.19,0,0,0-3.5,1.56,6.11,6.11,0,0,0-1.2,3.88,6,6,0,0,0,1.22,3.86,4.22,4.22,0,0,0,3.5,1.52,3.4,3.4,0,0,0,3.34-2.22h0v2h1.74V215.22h-1.8Zm-3.14,7A2.61,2.61,0,0,1,794,227.1a5.16,5.16,0,0,1-.74-2.86,4.47,4.47,0,0,1,.78-2.68,2.72,2.72,0,0,1,2.36-1.1c1.94,0,3,1.44,3.1,3.58v.14a5.3,5.3,0,0,1-.74,2.9A2.59,2.59,0,0,1,796.31,228.24Z"/>
      <path class="cls-2" d="M475.54,220.8h0l-7.84-11.58h-2V223.5h1.8V212h0l7.78,11.46h2.08V209.22h-1.8Zm3.85-2.46a5.67,5.67,0,0,0,1.36,3.88,5.36,5.36,0,0,0,7.48,0,6.21,6.21,0,0,0,0-7.76,5.31,5.31,0,0,0-7.48,0A5.63,5.63,0,0,0,479.39,218.34Zm8.4,0a4.09,4.09,0,0,1-1,2.86,3,3,0,0,1-2.34,1,3.05,3.05,0,0,1-2.36-1,4.85,4.85,0,0,1,0-5.74,3.07,3.07,0,0,1,2.36-1.06,3,3,0,0,1,2.34,1.06A4.11,4.11,0,0,1,487.79,218.34Zm9.54-5.22a3.4,3.4,0,0,0-4.12,2.62h0v-2.58h-1.7V223.5h1.8v-4.6c0-3,1.56-4.48,4.06-4.08Zm9.17,2.14a3.52,3.52,0,0,0-3.36-1.88,4.35,4.35,0,0,0-3.46,1.46,5.12,5.12,0,0,0-1.26,3.5,5.7,5.7,0,0,0,1.32,3.88,5.26,5.26,0,0,0,7.4,0,5.7,5.7,0,0,0,1.32-3.88,9.45,9.45,0,0,0-3.48-7.66l2.3-1.06-.7-.74-2.4,1.12c-.46-.38-1-.74-1.54-1.12l-1.6.92a5.45,5.45,0,0,1,1.6.94l-2.18,1,.76.8,2.3-1.08A9.17,9.17,0,0,1,505.1,213a9,9,0,0,1,1.44,2.22Zm-6.28,3.08c0-2.1,1.12-3.46,3.12-3.46a3.13,3.13,0,0,1,3.32,3.46c0,2.42-1.38,3.9-3.22,3.9S500.22,220.76,500.22,218.34Zm17.28.3c0,2.58-1,3.6-3.06,3.6-1.52,0-2.38-.64-2.38-2.46v-6.62h-1.8V220c0,2.32,1.32,3.78,3.94,3.78a3.28,3.28,0,0,0,3.36-2.48h0v2.24h1.7V213.16h-1.8Zm9.89-5.52a3.4,3.4,0,0,0-4.12,2.62h0v-2.58h-1.7V223.5h1.8v-4.6c0-3,1.56-4.48,4.06-4.08ZM529,223.5h1.8V209.22H529Zm12.68-6.94a3.6,3.6,0,0,0-.38-1.76,2.48,2.48,0,0,0-.68-.94,5,5,0,0,0-3.2-.94c-1.88,0-3.14.6-3.76,1.8a4.36,4.36,0,0,0-.38,1.48H535a2.37,2.37,0,0,1,.34-1,2.26,2.26,0,0,1,2-.8c1.54,0,2.42.54,2.42,1.5,0,.78-.16,1-1.34,1.38a6.66,6.66,0,0,1-1.14.18c-.56.06-1.08.14-1.58.24a10,10,0,0,0-1.54.44,2.65,2.65,0,0,0-1.72,2.62c0,1.32.6,3,3.76,3,2,0,3.3-.88,3.62-2.54h0a18.56,18.56,0,0,0,.08,2.3h1.8a5.28,5.28,0,0,1-.16-1.4Zm-1.8,2.14c0,2.62-1.14,3.64-3.36,3.64-1.3,0-2.1-.66-2.1-1.62,0-1.28.76-1.72,2.6-2.06s2.68-.72,2.86-1.62Zm9.14-5.78a3.28,3.28,0,0,0-3.36,2.48h0v-2.24h-1.7V223.5h1.8V218c0-2.58,1-3.6,3.06-3.6,1.52,0,2.38.64,2.38,2.46v6.62h1.8v-6.8C552.92,214.38,551.6,212.92,549,212.92Zm13.69,2.3h-.08a3.2,3.2,0,0,0-3.3-2.3,4.19,4.19,0,0,0-3.5,1.56,6.11,6.11,0,0,0-1.2,3.88,6,6,0,0,0,1.22,3.86,4.22,4.22,0,0,0,3.5,1.52,3.4,3.4,0,0,0,3.34-2.22h0v2h1.74V209.22h-1.8Zm-3.14,7a2.61,2.61,0,0,1-2.36-1.14,5.16,5.16,0,0,1-.74-2.86,4.47,4.47,0,0,1,.78-2.68,2.72,2.72,0,0,1,2.36-1.1c1.94,0,3,1.44,3.1,3.58v.14a5.3,5.3,0,0,1-.74,2.9A2.59,2.59,0,0,1,559.53,222.24Z"/>
      <path class="cls-2" d="M271.3,283.6h0l-4.1-12.38h-2l4.92,14.28,2.4,0,5-14.26h-2Zm11.87-8.68a4.92,4.92,0,0,0-3.68,1.54A5.33,5.33,0,0,0,278,280.3c.1,3.28,1.94,5.44,5.22,5.44a4.3,4.3,0,0,0,4.58-3.52h-1.76a2.6,2.6,0,0,1-2.82,2c-2.1,0-3.24-1.12-3.42-3.38H288C288.11,278.34,286.91,274.92,283.17,274.92Zm-3.3,4.42a3.35,3.35,0,0,1,3.3-2.94,3,3,0,0,1,3,2.94Zm9.23,3.12a3,3,0,0,0,1.32,2.54,5.56,5.56,0,0,0,3,.74,5,5,0,0,0,3.84-1.32,2.67,2.67,0,0,0,.74-1.94,2.25,2.25,0,0,0-1.08-2.08,7.07,7.07,0,0,0-2.3-.86c-.18,0-.44-.1-.8-.16l-.8-.16-.66-.2c-.7-.24-1.12-.6-1.12-1.26,0-1,1-1.38,2.18-1.38,1.34,0,2.16.32,2.46,1.6h1.66a3.09,3.09,0,0,0-1.28-2.42,5.66,5.66,0,0,0-3-.64,4.9,4.9,0,0,0-2.7.76,2.42,2.42,0,0,0-1.16,2.18,2.36,2.36,0,0,0,1.64,2.34,9.83,9.83,0,0,0,2.08.56c.42.08.72.14.92.2a7.25,7.25,0,0,1,.8.22,2.06,2.06,0,0,1,.7.34,1.47,1.47,0,0,1,.62,1.18,1.25,1.25,0,0,1-.82,1.22,4.57,4.57,0,0,1-1.88.36c-1.66,0-2.56-.6-2.66-1.82Zm15.38-7.3h-2.06v-3.3h-.06l-1.7.84v2.46H299v1.48h1.7v6.88c0,1.26.42,2,1.7,2h2V284h-1.2c-.62,0-.76-.16-.76-.64v-6.7h2.06Zm9,5.48c0,2.58-1,3.6-3.06,3.6-1.52,0-2.38-.64-2.38-2.46v-6.62h-1.8V282c0,2.32,1.32,3.78,3.94,3.78a3.28,3.28,0,0,0,3.36-2.48h0v2.24h1.7V275.16h-1.8Zm9.89-5.52a3.4,3.4,0,0,0-4.12,2.62h0v-2.58h-1.7V285.5h1.8v-4.6c0-3,1.56-4.48,4.06-4.08Zm1.57,10.38h1.8V271.22h-1.8Zm12.68-6.94a3.6,3.6,0,0,0-.38-1.76,2.48,2.48,0,0,0-.68-.94,5,5,0,0,0-3.2-.94c-1.88,0-3.14.6-3.76,1.8a4.36,4.36,0,0,0-.38,1.48H331a2.37,2.37,0,0,1,.34-1,2.26,2.26,0,0,1,2-.8c1.54,0,2.42.54,2.42,1.5,0,.78-.16,1-1.34,1.38a6.66,6.66,0,0,1-1.14.18c-.56.06-1.08.14-1.58.24a10,10,0,0,0-1.54.44,2.65,2.65,0,0,0-1.72,2.62c0,1.32.6,3,3.76,3,2,0,3.3-.88,3.62-2.54h0a18.56,18.56,0,0,0,.08,2.3h1.8a5.28,5.28,0,0,1-.16-1.4Zm-1.8,2.14c0,2.62-1.14,3.64-3.36,3.64-1.3,0-2.1-.66-2.1-1.62,0-1.28.76-1.72,2.6-2.06s2.68-.72,2.86-1.62Zm9.14-5.78a3.28,3.28,0,0,0-3.36,2.48h0v-2.24h-1.7V285.5h1.8V280c0-2.58,1-3.6,3.06-3.6,1.52,0,2.38.64,2.38,2.46v6.62h1.8v-6.8C348.9,276.38,347.58,274.92,345,274.92Zm13.69,2.3h-.08a3.2,3.2,0,0,0-3.3-2.3,4.19,4.19,0,0,0-3.5,1.56,6.11,6.11,0,0,0-1.2,3.88,6,6,0,0,0,1.22,3.86,4.22,4.22,0,0,0,3.5,1.52,3.4,3.4,0,0,0,3.34-2.22h0v2h1.74V271.22h-1.8Zm-3.14,7a2.61,2.61,0,0,1-2.36-1.14,5.16,5.16,0,0,1-.74-2.86,4.47,4.47,0,0,1,.78-2.68,2.72,2.72,0,0,1,2.36-1.1c1.94,0,3,1.44,3.1,3.58v.14a5.3,5.3,0,0,1-.74,2.9A2.59,2.59,0,0,1,355.51,284.24Z"/>
      <path class="cls-2" d="M109.63,119.72v0l-12.58,3.43-.11,2L111.46,121l.11-2.4-14-5.72-.11,2Z"/>
      <path class="cls-2" d="M104.64,93.52a4.94,4.94,0,0,0,.52,4,5.35,5.35,0,0,0,3.31,2.44c3.19.77,5.76-.44,6.63-3.6A4.3,4.3,0,0,0,112.91,91l-.47,1.7a2.6,2.6,0,0,1,1.21,3.25c-.56,2-1.94,2.83-4.16,2.41l2.16-7.89C109.25,89.66,105.63,89.91,104.64,93.52Zm3.4,4.35a3.35,3.35,0,0,1-2-4,3,3,0,0,1,3.63-2.12Z"/>
      <path class="cls-2" d="M117.63,78.2a3.08,3.08,0,0,0,2.87,0,5.63,5.63,0,0,0,2-2.35,5,5,0,0,0,.56-4,2.7,2.7,0,0,0-1.4-1.54,2.25,2.25,0,0,0-2.34,0A7.1,7.1,0,0,0,117.52,72c-.12.15-.29.35-.5.64l-.51.65-.47.5a1.34,1.34,0,0,1-1.63.43c-.86-.44-.78-1.52-.25-2.57s1.26-1.79,2.54-1.48l.75-1.48a3.1,3.1,0,0,0-2.74,0,5.75,5.75,0,0,0-1.91,2.36,4.93,4.93,0,0,0-.54,2.75,2.45,2.45,0,0,0,1.42,2,2.37,2.37,0,0,0,2.83-.41,9.86,9.86,0,0,0,1.44-1.6c.26-.34.45-.58.59-.73s.33-.38.56-.62a2.13,2.13,0,0,1,.62-.47,1.47,1.47,0,0,1,1.33,0,1.24,1.24,0,0,1,.72,1.28,4.63,4.63,0,0,1-.52,1.84c-.75,1.48-1.7,2-2.83,1.55Z"/>
      <path class="cls-2" d="M125.63,50.52l-1.23,1.66-2.65-2,0,0-.34,1.86,2,1.47-1,1.37,1.18.88,1-1.37,5.52,4.11c1,.75,1.84.84,2.6-.19l1.21-1.62-1.22-.9-.72,1c-.37.5-.58.51-1,.23l-5.38-4,1.23-1.65Z"/>
      <path class="cls-2" d="M136,38.56l-1.2-1.2c-.35-.35-.32-.72.07-1.12l.72-.72-1.06-1.06-.94.95a2,2,0,0,0-.2,3l1.38,1.38L133.55,41l1,1,1.22-1.21,6.28,6.27,1.24-1.24L137,39.58l1.39-1.39-1-1Z"/>
      <path class="cls-2" d="M146.11,24.42l-1.46,1.11,1.26,1.66,1.46-1.12Zm7.21,12.46,1.43-1.09-6.27-8.23-1.43,1.09Z"/>
      <path class="cls-2" d="M164.32,17.24a3.4,3.4,0,0,0-2.31,4.3l0,0-1.26-2.25-1.48.83,5.06,9,1.57-.88-2.25-4c-1.48-2.63-.83-4.67,1.54-5.54Z"/>
      <path class="cls-2" d="M184.53,10.83a3.51,3.51,0,0,0-3.79-.7,4.31,4.31,0,0,0-2.8,2.5,5.12,5.12,0,0,0-.07,3.72,5.77,5.77,0,0,0,2.5,3.25,4.63,4.63,0,0,0,4,.24,4.64,4.64,0,0,0,3-2.63,5.78,5.78,0,0,0,0-4.1A9.46,9.46,0,0,0,181.61,7l1.84-1.74-.9-.48L180.64,6.6A18.63,18.63,0,0,0,178.82,6L177.6,7.42a5.77,5.77,0,0,1,1.82.37l-1.74,1.67,1,.51,1.83-1.76a9,9,0,0,1,2,1,8.93,8.93,0,0,1,2.08,1.64Zm-5,4.94c-.67-2,0-3.64,1.84-4.28a3.12,3.12,0,0,1,4.26,2.2c.78,2.29,0,4.14-1.79,4.73S180.35,18.06,179.57,15.77Z"/>
      <path class="cls-2" d="M201.33.47l-1.82.3.34,2.05,1.82-.3Zm.53,14.39,1.77-.3L202,4.36l-1.78.29Z"/>
      <path class="cls-2" d="M220.78,2.66a3.41,3.41,0,0,0-4.06,2.72h0l-.06-2.58-1.7,0,.24,10.34,1.8,0-.11-4.6c-.07-3,1.46-4.52,4-4.18Z"/>
      <path class="cls-2" d="M461.94,392.32c-.1-3-2.14-4.44-5.24-4.44A6.37,6.37,0,0,0,453,389a3.58,3.58,0,0,0-1.54,3.1c0,5.24,9.14,2.24,9.14,6.58a2.08,2.08,0,0,1-1.1,2,5.48,5.48,0,0,1-2.64.6,5.08,5.08,0,0,1-2.92-.78,2.83,2.83,0,0,1-1.14-2.48h-1.9a4.24,4.24,0,0,0,1.68,3.66,7.17,7.17,0,0,0,4.28,1.2,6,6,0,0,0,4.74-1.82,3.5,3.5,0,0,0,.9-2.44c0-5.78-9.14-3-9.14-6.66a2,2,0,0,1,1-1.86,4.66,4.66,0,0,1,2.38-.58c2,0,3.12.84,3.34,2.84Zm9.67,5.32c0,2.58-1,3.6-3.06,3.6-1.52,0-2.38-.64-2.38-2.46v-6.62h-1.8V399c0,2.32,1.32,3.78,3.94,3.78a3.28,3.28,0,0,0,3.36-2.48h0v2.24h1.7V392.16h-1.8Zm11.71-3.38a3.52,3.52,0,0,0-3.36-1.88,4.35,4.35,0,0,0-3.46,1.46,5.12,5.12,0,0,0-1.26,3.5,5.7,5.7,0,0,0,1.32,3.88,5.26,5.26,0,0,0,7.4,0,5.7,5.7,0,0,0,1.32-3.88,9.45,9.45,0,0,0-3.48-7.66l2.3-1.06-.7-.74L481,389c-.46-.38-1-.74-1.54-1.12l-1.6.92a5.45,5.45,0,0,1,1.6.94l-2.18,1,.76.8,2.3-1.08a9.17,9.17,0,0,1,1.58,1.56,9,9,0,0,1,1.44,2.22ZM477,397.34c0-2.1,1.12-3.46,3.12-3.46a3.13,3.13,0,0,1,3.32,3.46c0,2.42-1.38,3.9-3.22,3.9S477,399.76,477,397.34Zm17.28.3c0,2.58-1,3.6-3.06,3.6-1.52,0-2.38-.64-2.38-2.46v-6.62h-1.8V399c0,2.32,1.32,3.78,3.94,3.78a3.28,3.28,0,0,0,3.36-2.48h0v2.24h1.7V392.16h-1.8Zm9.89-5.52a3.4,3.4,0,0,0-4.12,2.62h0v-2.58h-1.7V402.5h1.8v-4.6c0-3,1.56-4.48,4.06-4.08Zm1.57,10.38h1.8V388.22h-1.8Zm12.68-6.94a3.6,3.6,0,0,0-.38-1.76,2.48,2.48,0,0,0-.68-.94,5,5,0,0,0-3.2-.94c-1.88,0-3.14.6-3.76,1.8a4.36,4.36,0,0,0-.38,1.48h1.8a2.37,2.37,0,0,1,.34-1,2.26,2.26,0,0,1,2-.8c1.54,0,2.42.54,2.42,1.5,0,.78-.16,1-1.34,1.38a6.66,6.66,0,0,1-1.14.18c-.56.06-1.08.14-1.58.24a10,10,0,0,0-1.54.44,2.65,2.65,0,0,0-1.72,2.62c0,1.32.6,3,3.76,3,2,0,3.3-.88,3.62-2.54h0a18.56,18.56,0,0,0,.08,2.3h1.8a5.28,5.28,0,0,1-.16-1.4Zm-1.8,2.14c0,2.62-1.14,3.64-3.36,3.64-1.3,0-2.1-.66-2.1-1.62,0-1.28.76-1.72,2.6-2.06s2.68-.72,2.86-1.62Zm9.14-5.78a3.28,3.28,0,0,0-3.36,2.48h0v-2.24h-1.7V402.5h1.8V397c0-2.58,1-3.6,3.06-3.6,1.52,0,2.38.64,2.38,2.46v6.62h1.8v-6.8C529.74,393.38,528.42,391.92,525.8,391.92Zm13.69,2.3h-.08a3.2,3.2,0,0,0-3.3-2.3,4.19,4.19,0,0,0-3.5,1.56,6.11,6.11,0,0,0-1.2,3.88,6,6,0,0,0,1.22,3.86,4.22,4.22,0,0,0,3.5,1.52,3.4,3.4,0,0,0,3.34-2.22h0v2h1.74V388.22h-1.8Zm-3.14,7A2.61,2.61,0,0,1,534,400.1a5.16,5.16,0,0,1-.74-2.86,4.47,4.47,0,0,1,.78-2.68,2.72,2.72,0,0,1,2.36-1.1c1.94,0,3,1.44,3.1,3.58v.14a5.3,5.3,0,0,1-.74,2.9A2.59,2.59,0,0,1,536.35,401.24Z"/>
      <path class="cls-3" d="M502.65,522.19c-1.14-.26-4-1.14-6.36-2-3.66-1.3-4.71-1.39-6.8-.26-1.39.7-4.36.44-5.05,1.05-.88.69-3,.26-6.8-1.48-3.05-1.4-34.16-16.56-41.3-18.21A87.16,87.16,0,0,0,420,499.71c-9.24,0-10.2-.26-16.65-3.57-5.14-2.7-9.67-6.36-18-15-10.2-10.45-25.53-23-31.89-26.22-7.41-3.75-18.13-10.11-19.26-11.42-1.74-2.09-12.11-2.18-12.11-.08s-1.4,2.7-9.5,4.26c-11.33,2.18-14,1.92-17.25-1.74-1.74-2-3.4-3-4.45-2.61s-3.74,1.31-6.27,2.18c-6.36,2.35-23.53,2.17-30.41-.26-3.57-1.31-5.31-1.49-5.84-.7-.43.61-2.52,1.48-4.79,1.83s-4.62,1.22-5.31,1.83-2.88.78-4.8.52a18.16,18.16,0,0,0-6.53.26c-4,1.13-5.67-1.39-4.18-6.45.78-2.7.61-3.74-.7-5.05-1.48-1.48-1.4-2.09,1-6.79,2.62-5.14,2.71-5.23.7-7.32-2.18-2.27-2.61-5.75-1-7.41.61-.61,1.57-3.92,2.18-7.4.7-3.84,1.74-6.54,2.62-6.89,2.35-.87,7.05,4.62,9.75,11.33,2.1,5.23,2.88,6.18,5.67,6.71,2.52.52,3.48.26,4.44-1.31.7-1.13,3.31-3.05,5.93-4.36,4-2,5.14-2.26,7.66-1.3s3.4.78,6.54-1.57c1.92-1.48,4.71-2.7,6.19-2.7,2.78,0,3.57-1.74,1.56-3.75-.69-.69-.87-2.26-.43-3.83.61-2.35,1.13-2.62,3.66-2.27,2.79.44,2.87.35,1.22-1.22a17.25,17.25,0,0,0-3.57-2.35c-2.44-1-2.27-3.75.17-3.75a3.29,3.29,0,0,1,2.61,1.05c.35.52,2.79,1.05,5.41,1.05,4.27,0,5-.35,6.53-3.14,1.74-3,1.74-3.14-.26-3.66a2.67,2.67,0,0,1-2-2.44,1.78,1.78,0,0,0-2-1.92c-3.48,0-2.61-5.05,1.74-9.75,2.1-2.27,4.71-5.14,5.84-6.45l2-2.44-3.58,2.26c-6.18,4-10.28,5.41-13.59,4.71a52.37,52.37,0,0,0-6.45-.79c-1.83-.08-3.31-.52-3.31-.95s2.09-3.14,4.62-5.84c4.53-4.79,4.62-5.05,3.05-7.41s-1.48-3,1-10.36c1.39-4.36,3.31-8.72,4.27-9.76,1.57-1.75,1.48-1.83-.44-1.83-2.35,0-5.31,3.48-5.31,6.27,0,1.22-1.57,2.18-5.23,3.31-4.79,1.4-5.4,1.4-7.06-.09-1-.95-4.79-7.84-3.83-9.49,1.57-2.88.52-5.32-2-4.53s-2.78.17-4-7.41c-.53-3.48-1.92-7.49-3-8.89-2-2.52-2.88-6-1.31-5.05.43.26,1.48-1.57,2.44-4l1.65-4.53-2.87-1.74c-3.31-2-3.75-3.75-1.13-5.23,1.13-.61-.7-1.83-.27-3.05.53-1.65.27-1.83-1.65-1.3a35.94,35.94,0,0,0-4.88,1.91c-3,1.57-6.71,1.75-7.58.35-.35-.52-15.25-3.48-21.35-4.09-7.67-.79-12.72-1.92-16.29-3.57-6.45-3-7.85-3.05-10.63-.27-1.83,1.83-3.23,2.18-8.37,2l-6.18-.18-2,4.36c-1.31,2.87-2.7,4.44-4,4.53-9.84.7-11.85.61-12.63-.52-.44-.7-5.67-2.53-6.36-3.57a7.44,7.44,0,0,1-.79-3.58c0-1.39-1.48-5-3.22-8.1-4.18-6.88-5.58-11.24-4.27-12.11a11.25,11.25,0,0,1,3.92-.7c1.92-.08,10.72-5,11.94-5.4,1.83-.61,2.44-.26,2.87,1.4.61,2.43,1.49,2.87,7.58,3.74,3.49.52,4.8.35,5.84-1A4.78,4.78,0,0,1,175,261.6c1.14,0,2.7-1.31,3.66-3.05,1.4-2.44,2.36-3.05,5.32-3.05,2,0,4.18-.53,4.88-1.22,1-1,1.74-.61,3.74,1.74a12.42,12.42,0,0,1,2.53,4.36.89.89,0,0,0,1.31.87c.78-.26,1.31-2.44,1.31-5.75,0-6.71,1.91-8.54,7.14-6.89,1.92.61,3.49,1.66,3.49,2.44,0,1.83,1.65,1.66,5.14-.43,2.18-1.31,3.39-1.48,4.7-.7s2.44.7,4.27-.26,2.09-1.31.79-1.31c-3,0-2-1.83,1.74-3,1.92-.61,3.57-1.48,3.57-1.83a14.78,14.78,0,0,1,2.61-3.57l2.62-2.87,1.92,2.87c1,1.57,1.83,3.75,1.65,4.88-.52,4.09,1.13,4.88,4.62,2.18,2-1.57,14.64-3.84,16.29-4.18,2.27-.44,4.36.08,8,2,3.49,1.83,5.92,2.53,8.19,2.09a11.71,11.71,0,0,1,6.19,1,22.61,22.61,0,0,0,13.42,1.91c3.31-.61,2.09-6.71,4.27-11.06,3.74-7.15,5.22-13.77,3.22-13.77a6.64,6.64,0,0,0-2.79,1.83c-7.23,6.62-11.85,9.59-15.51,10.11-6,.78-16.64-1.57-21.87-4.88-4.88-3.05-8.89-3.22-11.24-.35-1.39,1.66-6.53,3.75-7.41,3-.34-.35.18-2,1.22-3.74,2.18-3.84.87-6.1-2.35-4.1-2.87,1.74-3.05,1.57-1.92-1.74A6.53,6.53,0,0,1,244,221c1.83-.61,12.38-10.8,13.6-12.72s2.87-3.48,3.57-3.48c2.53,0,24.83-14.2,25.62-14.2s6.27-6,10.54-5.58l4.62.52-3.05-1.48a16.6,16.6,0,0,0-5.84-1.48c-2.18,0-2.79-.52-2.79-2.35a8,8,0,0,0-1.39-4.09c-1.31-1.75-1.4-1.66-1.92.26-.87,3.13-3.75,2.52-4.44-1l-.61-3.05-1.75,3.31a44.81,44.81,0,0,0-2.44,5.92c-.78,3.14-2.09,3.84-6.36,3.14-2.26-.35-4.53-2-7.84-5.84-5.31-6.1-5.23-6.36,3.4-9.15,5.92-1.91,8.1-3.22,8.1-4.79,0-.52-1.22-.08-2.78,1-4.45,3-6.37,3.49-7.15,1.48-1.05-2.61-4-2.35-4.71.35a6,6,0,0,1-2.52,3.4c-3.23,1.74-4.27-1-4.27-11,0-5.14-.44-9.23-1-9.23s-1,.78-1,1.74c0,2.09-2.35,9-3.31,10-.35.35-.7-2-.7-5.32,0-7.58-1.39-5.75-3.13,4.1-1.22,7.06.69,8-2.53,3.92-1.13-1.48-2.18-12.9-2.7-13.24s-.7,2.87-.26,8.62c.43,5.05.43,9.67.08,10.19-.87,1.49-6.88-.87-6.27-2.43.26-.79-5.4-3.93-5.4-4s5.05-9.76,5-10.63c0-1-.34-.87-.95.52-.53,1.13-5.23,6.88-6,5.58-.52-.87-1-1-1-.44s-1.4,1.92-3.14,2.88c-2.26,1.39-3.4,1.56-4.27.69a4.65,4.65,0,0,0-2.79-1.13c-.95,0-2.44-1-3.31-2.26-1.57-2.18-1.57-2.1-1.65,3.48-.09,4.79-.44,6-2.27,7.32-2.79,2-7.75,2-10.37,0a7.56,7.56,0,0,0-3.57-1.48c-3,0-18.73,7.14-20.3,9.15-1.13,1.48-3.23,2.09-8.11,2.52-7.92.7-11-.69-12.63-5.57-.78-2.36-2.79-4.62-6.19-7l-5-3.49-10.46,1c-10.46.52-15.25-.35-15.25-2.79,0-1.74,7.32-8.45,9.59-8.8a3.1,3.1,0,0,0,2.35-2.87,36.75,36.75,0,0,1,2.88-7.84l2.61-5.32,3.14,2.09a51.74,51.74,0,0,0,6.44,3.57c2,.88,11.42,10.55,12.55,10.55,1.92,0,1.83-.35-1.13-3.66-3.23-3.66-5.14-7.41-5.14-10.11,0-1.13,1-1.31,4.27-.78a21.28,21.28,0,0,1,5.84,1.65c.87.52-.35-.69-2.71-2.7-6.71-5.84-8.45-9.41-8.45-17.16,0-5.58.35-6.89,1.92-7.76,1.92-1,24,14.9,25.79,15.69a23.93,23.93,0,0,1,7.15,5.75c3.31,3.92,3.66,4.7,3.13,8.36s-.52,3.92.87,2c.88-1.13,6.89-2.61,7.85-3.57,1.56-1.65,1.48-1.83-1.22-2.35-3.23-.61-8.89-7.32-7.5-8.8.53-.52,4.1-1.39,8-1.92,11.5-1.65,13.24-2.17,14.55-4.35,1.22-2,1.22-2-1.05-.44-2.87,2-16.29,2.27-24.22.44-6.36-1.48-11.06-5.75-15.94-14.64-3-5.4-2.88-8.89.17-12,3.57-3.58,6.45-3.14,13.33,2,3.31,2.53,6.8,4.53,7.84,4.53s3.14,1,4.8,2.27,3.22,2,3.48,1.74-1.65-1.83-4.27-3.49c-11.15-7.14-21.26-18.38-21.26-24,0-3.49,2.09-8.72,3.4-8.72,2.61,0,8.89,2.79,11.07,4.88a7.83,7.83,0,0,0,4.09,2.18,12.84,12.84,0,0,1,4,1.05c1.22.61.43-.44-1.83-2.27C181,69.31,180.69,68.79,182,65.82c1-2.09,2-2.78,4.36-2.78,2.79,0,3-.18,1.4-1.4C185.57,60,185.48,59,187.48,59c.88,0,4.19-5.05,5.06-5.05a8.72,8.72,0,0,0,3.31-1.14c5.58-2.87,16.38,7.32,17.51,7.76,2.7.87,6,6.27,6,9.84,0,2.62.18,2.7,2.53,1.66,3.4-1.57,5.58.35,5.58,4.88,0,2.26.52,3.39,1.39,3.39s5.67,1.31,6.54,2.36c.61.78.87,1.65.52,2-.78.78.52,4.79,1.48,4.79.44,0,.87-2.35,1.05-5.31.26-6.1.52-6.62,2.61-4.88a3.85,3.85,0,0,0,3.14.7c1.13-.44,2,.43,3,3,.78,2,5.05,8.45,5.84,9.84,1.22,2.27,1.48,2.36,2.44.87s1.22-1.3,2.17,1.14a6.52,6.52,0,0,0,2.62,3.4c1.74.69,3.83,7.23,2.87,8.88-.43.79-.26.79.53,0s.95-3.13.52-7.4c-.52-5.06-1.4-7.24-4.18-10.89s-3.23-4.88-2.27-6c.7-.78.78-1.48.35-1.48s0-.69,1.13-1.57c1.92-1.48,1.92-1.56-.61-1-2.09.52-2.79.17-3.74-2-.79-1.65-3.14-3.48-6.71-5-11.94-5.32-21.87-13.85-21.87-18.91,0-3,7.58-7.23,12.89-7.32,5.75,0,13,2.62,15.51,5.67l1.83,2.26L256,51.19c-.43-1.83-.17-2.27,1.83-2.35a12.78,12.78,0,0,0,4.44-1.05c1.4-.7.79-.78-2.26-.35-2.88.44-4.27.18-4.27-.52s-2.09-2-4.53-3.05c-3.14-1.39-4.53-2.53-4.53-3.92,0-1.66-.53-1.92-3.92-1.48-2.18.26-4.19.08-4.53-.53s-1.57-.61-3.4.35c-5.4,2.62-9.59,2.7-13.86.26a25.3,25.3,0,0,1-6-5c-1.65-2.26-1.83-3-.7-4.35a3.2,3.2,0,0,1,3-1.14c6.1,1.83,7.05,1.74,8.19-.43,1-1.83.87-2.09-.53-1.83A3.2,3.2,0,0,1,222,24.09a16.88,16.88,0,0,0-3.05-3.57c-1.83-1.57-1.83-1.66.17-4.1,1.66-2.09,2.36-2.26,4.36-1.48,3.14,1.31,7.23.7,6.62-1-.78-2,.52-3.31,4-4.1,2.61-.52,3.66-.26,5.58,1.75,3.92,4,8.88,7.05,10.54,6.44.87-.35,2-2,2.61-3.66,1.31-3.83,3.14-3.83,6.63,0,1.48,1.66,3.22,3,3.83,3s.44-.43-.44-1c-1.3-.87-1.3-1.22.27-2.7,1.65-1.65,1.83-1.65,3.83.09a14.63,14.63,0,0,1,3.14,5.93c1.13,4.35,5.57,9.75,7.84,9.75,1,0,1.22.79.7,2.7-.61,2.36-.53,2.53.87,1.4s1.65-1.05,2.26.43a6.19,6.19,0,0,1-.35,3.92c-1.3,2.71-1.48,7-.26,6.28a1.09,1.09,0,0,1,1.48.52c.44.7,1.22.44,2.18-.52,2.09-2.09,4.79-2,4,.08-1,2.44.17,3.49,2.79,2.53s5.75.35,5.75,2.53c0,.78.52,1.48,1.13,1.48s.87.87.61,1.92c-.61,2.35,1.83,6.18,3.92,6.18.79,0,6,3,7.32,4,1.83,1.57,2.09,2.35,1.31,4.36-1.39,3.57-1.31,15.5.09,14.11a2.34,2.34,0,0,1,2.44-.52c.78.35,1.39-.09,1.39-1.05,0-1.83,3.05-3,5.49-2.09,1,.35,2.44,2,3.31,3.75,1.48,2.87,1.48,3.22-.09,4.35-2.17,1.57-.26,2.88,2.27,1.57,1.39-.78,3-.26,6.53,1.92,2.53,1.57,5,3.4,5.41,4.09,1,1.57-1.4,3-5.06,3-2.79,0-2.87.08-1,1.48,1,.78,1.65,1.83,1.22,2.17s.69,1.31,2.52,1.83c4.27,1.4,6.1,6.63,3.4,9.59a4.32,4.32,0,0,0-1.13,3.92c.78,2.35-2.53,10.45-5.49,13.33l-2.18,2.18,2.09,1.74c2.09,1.74,2.09,1.74-1,6.27-3.92,5.84-4.62,6.1-10.63,5.23-3.84-.52-5.23-1.31-6.19-3.14l-1.22-2.35-1.13,2.18c-2.62,5,3.66,10.19,12.2,10.28a5.46,5.46,0,0,1,4,1.66c1.14,1.39,1,2.26-1,5.83l-2.35,4.18,3-2.78c3.22-3,5.31-3.49,7.14-1.57,1.57,1.57.44,12.72-1.56,15.77-1.31,2-1.31,2.26.17,2.26a1.57,1.57,0,0,1,1.66,1.31c0,.7,1.13,2.35,2.52,3.57,2.36,2.09,2.79,9,3.31,9.67,1.48,1.83,2.27,12.9,1.14,15.08s.69,9.32,2.09,8.45,2.26-9.59,2.09-19,.43-13,2.18-13c1.57,0,3.74,3.23,3.83,5.58a30.74,30.74,0,0,0,2.53,7.06l2.44,5-.61-4.53a49.48,49.48,0,0,0-2-8.45c-1.83-5.32-1.74-8.72.53-15.6,1-3.22,2.17-7.06,2.52-8.62s4.19-6.45,8.46-10.89l7.84-8.11,3.31,1.22,3.31,1.22-.61,6.28c-.61,6.18-.52,6.36,2.09,7a16,16,0,0,0,6.54-.44,28.17,28.17,0,0,1,5.57-1.13c2.88,0,4.45-2.44,6.62-10.28,2.44-8.8,2.62-15.77.53-19.78-.87-1.57-6.89-25.7-8.19-36.77-.09-.69.69-3.48.69-6.45.09-5.4.09-5.4,4-6.62A26.86,26.86,0,0,1,405,77.06a6.78,6.78,0,0,0,4-1.48c1.83-1.83,5.23-2,6.71-.26,4.44,5.23,14.9,29.45,15.68,30.15a4.23,4.23,0,0,1,1.48,3c0,1,1.83,2.61,4.62,3.92,3.83,1.92,5,3.14,7.06,7.84A28.45,28.45,0,0,1,447,129.6a12.32,12.32,0,0,0,1.48,5.84c1.48,1.91,1.48,1.91,2.18-.35.78-2.88,4-3,5.66-.26,1.57,2.52,3.66,2.61,4.53.26a15,15,0,0,1,2.09-3.49,2.69,2.69,0,0,0,.35-3.66,7.07,7.07,0,0,1-.17-5c.7-2.44-6.1-16.9-7.23-18.12-1.66-1.74-1.75-2.61-.88-4.27a4.08,4.08,0,0,1,3.14-2.09c1.83,0,2-.61,1.74-5.4-.17-4.18.27-6,1.92-8.28,1.83-2.53,2.79-3,7.58-3a29.36,29.36,0,0,1,7.76.7c1.57.61,3.13-2.18,4.27-2.88s2.17-2.87,2.61-5.83c.52-3.32,1.48-5.32,3.66-7.15,5-4.27,10.89-2.52,9.5,2.79-.61,2.35-.61,2.35.78-.09a6.59,6.59,0,0,0,1-4.18c-.61-2.26,1.05-3.22,4.27-2.44,1.83.44,2.79,1.48,3.22,3.57.35,1.57,1,2.62,1.49,2.36s2.7,1,5,2.7c4.18,3.39,5.14,6.36,2.79,9-1,1.22-1,1.22.52,0s2.09-1.13,4.1.87,2.26,3.31,2.26,10.28v8l6.63,2.44c6.71,2.44,11.15,6.79,11.15,10.89,0,1,4.62,13.33,5.4,14.46s1.74,4.79,2.09,7.93c1.22,9.67,2.18,7.4,2.44-5.84.26-13.68.44-13.33-6.36-18-2.18-1.48-2.61-2.44-2.09-4.62.44-1.92.09-3.22-1-4.1-2.44-2-4-6.53-6-17.33-1.65-8.8-1.65-10.2-.35-14.21,1.75-5.22,1.66-5.14,16.91-2.43,10,1.74,13.68,3.13,12.72,4.61-.35.53,1.39,2.27,3.83,3.92,5.41,3.66,9.94,9.5,10.81,13.68s4.27,5.4,10.89,4.1l4.88-1,2-8.28c1.57-6.62,2.44-8.45,4.36-9.32,2.35-1,3.22-4.53,1.31-5.66-1.75-1.05-1.14-3.23,1.65-6.62,1.75-2,3.31-3,4.45-2.71a1.76,1.76,0,0,0,2.26-1.22c.35-1.3,1.57-1.65,5-1.56,5.49.08,7,1,7,3.92a6.55,6.55,0,0,0,2,4.18,6.16,6.16,0,0,1,2,3.66A1.69,1.69,0,0,0,628,72.1c2.26,0,21.6-13.07,22.39-12.81,3.4,1.31,7.84-11.06,5.58-15.33-1.66-3.05-5.15-15.69-5.15-18.56a10.76,10.76,0,0,0-2.52-5.75c-2.35-2.79-2.44-3.23-1.22-7.41l1.31-4.44,6.53-.26c5-.18,7,.17,8.45,1.48,1.31,1.13,2.09,1.39,2.35.61A22.58,22.58,0,0,1,668,6.14a9.49,9.49,0,0,0,2-3c0-.87,5.75-.52,8.45.61,1.4.53,2,.18,2.44-1.48.61-2.17,3.05-2.35,2.62-.17-.18.61,6.79,6.18,8,6.53,1.83.44,2,.79,1,2.09-.87,1.05-1,2.88-.61,5.75.61,3.49,1.05,4.1,2.7,3.66,1.14-.34,9.15,3.75,10.89,5.49,3.75,3.75,4,7.32,1.14,13.33-2.35,4.88-2.53,5.93-.79,5.58.79-.18,1.31.87,1.31,2.79,0,2.61.35,3,2.7,3,1.48,0,8,2.17,8.89,3,5.23,4.87,7.67,6.62,9.5,6.62,1.57,0,1.83-.53,1.48-2.27-1.83-7.66-1.92-10-.26-11.76a5,5,0,0,1,4.7-1.39c4.27.61,9-1.57,9.76-4.53.35-1.31,7.06-11.5,10.89-14.38,3.05-2.35,5.93-4.18,6.45-4.18a5.4,5.4,0,0,1,2.53,2c2,2.35,4.79,2.53,10.37.44a25.62,25.62,0,0,1,6.53-1.48h2.44l-2.26,2.44c-2.1,2.26-5,3.74-13.07,6.7-2,.79-3.32,1.92-3.32,3.05s-1.83,2.88-4.53,4.45c-2.52,1.48-4.53,2.87-4.53,3.13a17.19,17.19,0,0,0,2.09,3.31c4.36,5.93-1.22,17.6-9.76,20.48-2.43.78-3.48,1.74-3.48,3.22s.44,1.92,1.74,1.31c5.32-2.18,5.49-2.09,5,2.87-.35,3.49-.18,4.53.78,4.1.79-.09,10.37,2,11.24,3.14,1.14,1.48,1.48,1.39,3.92-1,1.49-1.48,2.71-3,2.71-3.4s1.22-1.22,2.7-1.91c3.83-1.75,5.66.26,9,10.28,2.53,7.49,2.7,8.71,1.57,12.89-1.31,5-5.14,11.24-9.5,15.42-3,3-2.09,10.37-.61,6.54l-3.22,8.53s16.29-3.83,26.14-9.32a34.85,34.85,0,0,1,6.19-2.87c1.91,0,2.17,3.57.52,8.36s-1.57,5,.61,7.41A79.29,79.29,0,0,0,813,139c7.93,5.23,10.8,5.92,16.9,4.18,4-1.13,9.85,1.4,9.24,3.92a2.88,2.88,0,0,0,1.48,2.88,3.8,3.8,0,0,1,1.92,2.7c0,1.92,1.39,1.92,3.05,0a3.7,3.7,0,0,1,2.17-1.48c1.75,0,6.89,6.62,6.89,8.8a3.68,3.68,0,0,0,1.13,2.87,1.86,1.86,0,0,1,.35,2.35,33.13,33.13,0,0,0-1,7.41c-.43,8.45-2.61,11.94-7.58,12h-2.53l2.27,1.57c3.4,2.35,2.7,4.36-2.09,6.54-3.75,1.65-3.92,1.91-1.66,2a18.85,18.85,0,0,0,5.84-1.13c4.44-1.57,10.89,1.74,10.54,5.31-.78,6.54-5.14,11-10.89,11-1.31,0-2.79.52-3.14,1.13-.52.79,0,1,1.75.53,7.4-2,9.84-1.92,11.06.34,1.57,2.88.53,7.15-1.74,7.15-1.39,0,1.83,3.48,1.83,4.27s1.13-.79,2.53-3.4c4.18-8,5.84-7.84,6,.7.09,3,.44,5.83.87,6.27,1.92,1.92.61,6.45-2.35,8.71-2.35,1.74-3,2.88-2.62,4.71.27,1.39-3.13,5.49-5.31,6-4.36,1.13-5.84.43-11.68-4.88-4-3.75-10.63-6.54-10.63-4.53,0,.87-1.57,1.74-3.83,2.18-3.57.69-3.66.78-1.31,1.48a32.84,32.84,0,0,0,6.54.87,9.22,9.22,0,0,1,6.1,2.18c3.83,3.83,12.2,9.84,14.11,10.28,5.67,1,.09,4.88-7.4,5.05l-3.66.09,3.31,1.39c5.75,2.53,5.92,9.32.26,11.24-2.7,1-3,1.22-1.22,1.31,2.87.09,3,1.65,0,3.22a26.32,26.32,0,0,0-3.66,2.53c-1.57,1.57-7.93-.7-8.45-.7-.7,0,.87,5.14,1.74,5.4,2.09.79,1.92,4.36-.52,7.76-1.92,2.7-9.24,6.1-13.33,6.1-3.14,0-8.37-3.05-10.9-6.45-2.78-3.75-7.14-7.32-7.14-5.84,0,.52,1.39,2,3.05,3.14,1.92,1.31,8.19,11.41,9.58,11.76,2.53.61,4.1,3,3,4.62-.35.52-3.66.69-7.84.43-5.23-.43-6.62-.26-5,.44,1.22.52,2.27,1.65,2.27,2.35,0,1.92-7.58,7.84-10.11,7.84-3.05,0-2.87,4.79.18,6,1.91.79,3.05.18,7.4-4.35a44.37,44.37,0,0,0,5.84-7.06c1-2.44,4.18-1.74,4.53,1.05.35,2.52-2,6.62-6.27,10.89a10.53,10.53,0,0,0-3.31,6.27,17.53,17.53,0,0,1-1.4,5.4c-.61,1.13-.87,2-.69,2s-.09,2.09-.7,4.61c-1.13,4.45-1.4,4.71-8.89,7.93-13.16,5.67-17.95,10.63-16.55,17,.43,2.18.17,3.05-1.4,3.83a5,5,0,0,0-2.35,3.4c-.26,2.09-1.05,2.36-8.37,3.05-4.44.44-8.27.53-8.45.26s-.17-1.13.18-2c.43-1,1.91-1.57,4.61-1.57,5.06,0,5.76-1.13,2.71-3.92-2-1.92-2.44-2-3-.7a2.72,2.72,0,0,1-2.44,1.57,4.24,4.24,0,0,0-3,2c-1.56,2.52-3.31,2.61-3.31.26,0-2-3.31-5.32-5.31-5.32a9.66,9.66,0,0,1-3.66-1.65c-2.27-1.57-2.35-1.57-1.22.43,1.65,3.05,1.39,4.27-.87,4.27-1.48,0-2,.7-2,2.62,0,2.61,0,2.61,6.36,2s9.68.26,8.54,2.18c-.35.52-4.44,1.3-9.15,1.74-11.5,1-18.82,3.4-24.13,8-2.36,2.09-5.49,4.09-6.89,4.35-5,1.13-11.06,5.58-18.12,13.16-3.92,4.27-9.76,11-12.81,13-4.62,3-6.1,4.62-8.28,9.41-1.48,3.22-12.2,14.55-15.07,20.47-1.66,3.31-3.66,6.36-4.44,6.63-3.66,1.39-19.7,3.57-30.94,4.09-20.47,1-40.6,7.58-46.09,15.07a58,58,0,0,0-4.18,8.63c-1.48,3.66-4.19,9.58-6.1,13.15-4.53,8.8-10.2,12.46-28.23,18.21-7.5,2.36-17.52,5.75-22.31,7.41C513.19,522.1,507.09,523.06,502.65,522.19ZM307.73,356.82a16.09,16.09,0,0,1,4.09,1.57c1.92,1.05,3.49,1.22,4.1.61s-.87-1.57-4.1-2.61c-6.71-2.18-6.88-2.18-11.24,1.74-3.05,2.7-3.48,3.57-2.26,4.36,1,.69,2.44,0,5-2.36C305.2,358.3,307.21,356.82,307.73,356.82ZM290.48,332c3-1.57,6-5.57,4.18-5.57-.52,0-2.27,1-3.84,2.35a37.1,37.1,0,0,1-4.87,3.48c-1.83,1.05-1.83,1.14-.18,1.14C286.64,333.56,288.82,332.86,290.48,332ZM237.59,93,237.5,90,236.71,93a25.07,25.07,0,0,0-.78,5c-.09,2-.09,2,.78,0A14.39,14.39,0,0,0,237.59,93Zm291.46,6.27c-1.31-4.18-1.4-8.89-.09-8.89,3,0,5.93,7.67,3.49,9.24C530.44,100.85,529.48,100.76,529.05,99.28Z"/>
    </g>
  </g>
</svg>
