<svg width="98" height="16" viewBox="0 0 98 16" fill="none" xmlns="http://www.w3.org/2000/svg">
<path d="M14.18 15L8.56 0.719999H6.46L0.84 15H2.84L4.54 10.44H10.36L12.04 15H14.18ZM7.5 2.28L9.86 8.92H5.08L7.46 2.28H7.5ZM22.3473 10.14C22.3473 12.72 21.3073 13.74 19.2873 13.74C17.7673 13.74 16.9073 13.1 16.9073 11.28V4.66H15.1073V11.46C15.1073 13.78 16.4273 15.24 19.0473 15.24C20.6473 15.24 21.9273 14.42 22.4073 12.76H22.4473V15H24.1473V4.66H22.3473V10.14ZM25.7378 11.96C25.8178 13.14 26.2578 14 27.0578 14.5C27.8578 15 28.8578 15.24 30.0578 15.24C31.5978 15.24 32.9378 14.94 33.8978 13.92C34.3978 13.4 34.6378 12.76 34.6378 11.98C34.6378 11.04 34.2778 10.32 33.5578 9.9C32.8578 9.48 32.2378 9.26 31.2578 9.04C31.0778 9 30.8178 8.94 30.4578 8.88L29.6578 8.72L28.9978 8.52C28.2978 8.28 27.8778 7.92 27.8778 7.26C27.8778 6.3 28.8778 5.88 30.0578 5.88C31.3978 5.88 32.2178 6.2 32.5178 7.48H34.1778C34.0178 6.28 33.5978 5.48 32.8978 5.06C32.2178 4.64 31.2378 4.42 29.9378 4.42C28.9178 4.42 28.0178 4.68 27.2378 5.18C26.4578 5.68 26.0778 6.4 26.0778 7.36C26.1578 8.66 26.6778 9.26 27.7178 9.7C28.4978 10 28.8578 10.08 29.7978 10.26C30.2178 10.34 30.5178 10.4 30.7178 10.46C30.9378 10.5 31.1978 10.58 31.5178 10.68C31.8378 10.78 32.0778 10.9 32.2178 11.02C32.5378 11.26 32.8378 11.66 32.8378 12.2C32.8378 12.78 32.5578 13.18 32.0178 13.42C31.4778 13.66 30.8578 13.78 30.1378 13.78C28.4778 13.78 27.5778 13.18 27.4778 11.96H25.7378ZM41.1136 4.66H39.0536V1.36H38.9936L37.2936 2.2V4.66H35.5936V6.14H37.2936V13.02C37.2936 14.28 37.7136 15 38.9936 15H41.0136V13.48H39.8136C39.1936 13.48 39.0536 13.32 39.0536 12.84V6.14H41.1136V4.66ZM50.1208 10.14C50.1208 12.72 49.0808 13.74 47.0608 13.74C45.5408 13.74 44.6808 13.1 44.6808 11.28V4.66H42.8808V11.46C42.8808 13.78 44.2008 15.24 46.8208 15.24C48.4208 15.24 49.7008 14.42 50.1808 12.76H50.2208V15H51.9208V4.66H50.1208V10.14ZM60.0113 4.62C58.0713 4.3 56.4713 5.16 55.8913 7.24H55.8513V4.66H54.1513V15H55.9513V10.4C55.9513 7.38 57.5113 5.92 60.0113 6.32V4.62ZM61.575 15H63.375V0.719999H61.575V15ZM74.2542 8.06C74.2542 7.48 74.2142 7.02 73.8742 6.3C73.7142 5.92 73.4942 5.62 73.1942 5.36C72.6342 4.86 71.4942 4.42 69.9942 4.42C68.1142 4.42 66.8542 5.02 66.2342 6.22C66.0542 6.56 65.9342 7.04 65.8542 7.7H67.6542C67.7142 7.32 67.7342 7.18 67.9942 6.7C68.2942 6.2 68.9942 5.9 70.0342 5.9C71.5742 5.9 72.4542 6.44 72.4542 7.4C72.4542 8.18 72.2942 8.44 71.1142 8.78C70.9342 8.84 70.5542 8.9 69.9742 8.96C69.4142 9.02 68.8942 9.1 68.3942 9.2C67.8942 9.3 67.3942 9.44 66.8542 9.64C65.8142 10.04 65.1342 10.96 65.1342 12.26C65.1342 13.58 65.7342 15.24 68.8942 15.24C70.8742 15.24 72.1942 14.36 72.5142 12.7H72.5342C72.5342 13.88 72.5542 14.64 72.6142 15H74.4142C74.3142 14.64 74.2542 14.18 74.2542 13.6V8.06ZM72.4542 10.2C72.4542 12.82 71.3142 13.84 69.0942 13.84C67.7942 13.84 66.9942 13.18 66.9942 12.22C66.9942 10.94 67.7542 10.5 69.5942 10.16C71.4942 9.78 72.2742 9.44 72.4542 8.54V10.2ZM81.595 4.42C79.995 4.42 78.715 5.24 78.235 6.9H78.195V4.66H76.495V15H78.295V9.52C78.295 6.94 79.335 5.92 81.355 5.92C82.875 5.92 83.735 6.56 83.735 8.38V15H85.535V8.2C85.535 5.88 84.215 4.42 81.595 4.42ZM95.2855 6.72H95.2055C94.8255 5.22 93.4455 4.42 91.9055 4.42C90.3855 4.42 89.2255 4.94 88.4055 5.98C87.6055 7 87.2055 8.3 87.2055 9.86C87.2055 11.4 87.6055 12.7 88.4255 13.72C89.2455 14.74 90.4055 15.24 91.9255 15.24C93.5055 15.24 94.6055 14.5 95.2655 13.02H95.3055V15H97.0455V0.719999H95.2455L95.2855 6.72ZM92.1455 13.74C91.0655 13.74 90.2855 13.36 89.7855 12.6C89.2855 11.82 89.0455 10.88 89.0455 9.74C89.0455 8.68 89.3055 7.78 89.8255 7.06C90.3655 6.32 91.1455 5.96 92.1855 5.96C94.1255 5.96 95.2255 7.4 95.2855 9.54V9.68C95.2855 10.82 95.0455 11.8 94.5455 12.58C94.0655 13.36 93.2655 13.74 92.1455 13.74Z" fill="#333333"/>
</svg>
