<svg width="274" height="32" viewBox="0 0 274 32" fill="none" xmlns="http://www.w3.org/2000/svg">
<path d="M12.2307 17.3347L4.58302 18.3891L3.71983 12.1284L1.83763 12.3879L3.78802 26.5341L5.67021 26.2746L4.80155 19.9742L12.4492 18.9197L13.3179 25.2201L15.2001 24.9606L13.2497 10.8145L11.3675 11.074L12.2307 17.3347Z" fill="#333333"/>
<path d="M23.6654 11.6055L25.4531 11.3951L25.21 9.32939L23.4224 9.53974L23.6654 11.6055ZM27.3997 11.1661L29.1873 10.9557L28.9443 8.88999L27.1566 9.10034L27.3997 11.1661ZM22.0649 18.8824C22.2472 20.4317 22.8559 21.669 23.869 22.5769C24.882 23.4847 26.1918 23.834 27.761 23.6494C29.3302 23.4648 30.5231 22.8209 31.2977 21.7027C32.0724 20.5846 32.3773 19.2397 32.195 17.6904C32.0103 16.1212 31.4039 14.9038 30.3909 13.9959C29.3778 13.0881 28.0657 12.7189 26.4965 12.9035C24.9274 13.0882 23.7368 13.7519 22.9621 14.87C22.1875 15.9882 21.8802 17.3132 22.0649 18.8824ZM30.4073 17.9008C30.5476 19.0925 30.3419 20.0833 29.7881 20.8533C29.2542 21.621 28.5192 22.0498 27.5857 22.1597C26.6521 22.2695 25.8377 22.023 25.1203 21.4026C24.4228 20.7798 23.9928 19.8638 23.8525 18.672C23.71 17.4604 23.9156 16.4696 24.4495 15.7019C25.0033 14.9319 25.7359 14.4832 26.6695 14.3734C27.6031 14.2635 28.4198 14.5299 29.1173 15.1527C29.8348 15.7731 30.2647 16.6891 30.4073 17.9008Z" fill="#333333"/>
<path d="M41.769 11.4683L41.5967 9.77703C41.546 9.27961 41.8002 9.01246 42.3573 8.95569L43.3721 8.85229L43.22 7.36001L41.8869 7.49586C40.514 7.63575 39.7237 8.56063 39.8393 9.69476L40.038 11.6447L38.3268 11.819L38.4748 13.2715L40.186 13.0971L41.0862 21.9314L42.8371 21.753L41.9369 12.9187L43.8868 12.72L43.7388 11.2676L41.769 11.4683Z" fill="#333333"/>
<path d="M58.7646 15.3955C58.9861 17.9659 58.0375 19.0715 56.025 19.2449C54.5106 19.3754 53.5988 18.8116 53.4425 16.9983L52.8741 10.4028L51.0808 10.5573L51.6646 17.3322C51.8638 19.6436 53.3043 20.9849 55.9146 20.76C57.5087 20.6226 58.7136 19.6957 59.0493 18.0006L59.0891 17.9972L59.2815 20.2289L60.9752 20.083L60.0874 9.78114L58.294 9.93569L58.7646 15.3955Z" fill="#333333"/>
<path d="M76.0271 10.7233C75.2634 9.51214 74.104 8.96932 72.5476 9.07485C71.091 9.17362 69.986 9.72964 69.1943 10.7656C68.4212 11.7802 68.0806 12.9659 68.174 14.3428C68.2808 15.9192 68.8064 17.1665 69.7534 18.1246C70.7004 19.0827 71.9714 19.4977 73.5478 19.3908C75.1241 19.2839 76.3275 18.7012 77.1365 17.624C77.9454 16.5468 78.2978 15.24 78.191 13.6636C77.9758 10.4909 76.6453 8.01523 74.2008 6.25657L76.4238 5.04341L75.6753 4.35245L73.3566 5.63224C72.8719 5.28423 72.3288 4.96023 71.7443 4.61898L70.2102 5.64511C70.8451 5.84262 71.4055 6.12536 71.8702 6.47472L69.7642 7.63986L70.5765 8.38661L72.7982 7.1535C73.1949 7.3872 73.7689 7.86948 74.4801 8.60304C75.1914 9.33661 75.7203 10.0424 76.067 10.7205L76.0271 10.7233ZM69.9698 14.221C69.8278 12.1258 70.8532 10.6932 72.8486 10.5579C75.0635 10.4077 76.2598 11.79 76.3951 13.7854C76.5588 16.1998 75.2821 17.7698 73.4463 17.8943C71.6105 18.0187 70.1335 16.6355 69.9698 14.221Z" fill="#333333"/>
<path d="M90.4692 7.56085C88.9311 7.63695 87.5923 8.50416 87.2869 10.0211L87.227 10.0241L86.9705 4.02942L85.1527 4.11934L85.8583 18.3819L87.5961 18.2959L87.4983 16.3183L87.5383 16.3164C88.2706 17.762 89.4058 18.4467 90.9839 18.3686C92.502 18.2935 93.6359 17.7368 94.4045 16.6775C95.1731 15.6183 95.5084 14.3001 95.4323 12.762C95.3552 11.2039 94.8915 9.92524 94.0221 8.947C93.1717 7.9478 91.9874 7.48575 90.4692 7.56085ZM90.69 16.8813C89.5714 16.9367 88.7536 16.5967 88.2157 15.8423C87.6977 15.087 87.4096 14.12 87.3533 12.9814L87.3473 12.8616C87.3015 10.7212 88.328 9.20867 90.2657 9.11281C91.3044 9.06142 92.1012 9.38244 92.6572 10.0958C93.2321 10.7883 93.5362 11.6743 93.5886 12.733C93.6449 13.8716 93.4517 14.8224 92.9908 15.6261C92.529 16.4099 91.7687 16.828 90.69 16.8813Z" fill="#333333"/>
<path d="M102.091 12.4691C102.14 14.0284 102.64 15.3134 103.571 16.3049C104.503 17.2964 105.777 17.7568 107.357 17.7076C108.936 17.6584 110.18 17.1194 111.048 16.0718C111.915 15.0243 112.335 13.7106 112.286 12.1513C112.237 10.5721 111.737 9.30706 110.806 8.31559C109.874 7.32413 108.599 6.84364 107.02 6.89287C105.44 6.9421 104.197 7.50111 103.329 8.54866C102.462 9.5962 102.042 10.8899 102.091 12.4691ZM110.487 12.2074C110.524 13.4068 110.234 14.3763 109.616 15.0959C109.019 15.8149 108.25 16.1791 107.31 16.2083C106.37 16.2376 105.58 15.9221 104.919 15.2424C104.277 14.562 103.927 13.6125 103.89 12.4131C103.852 11.1937 104.142 10.2241 104.74 9.50517C105.358 8.78557 106.126 8.40144 107.066 8.37215C108.005 8.34287 108.796 8.67839 109.438 9.35873C110.099 10.0384 110.449 10.988 110.487 12.2074Z" fill="#333333"/>
<path d="M125.483 6.68759C123.538 6.39681 121.951 7.28078 121.403 9.36927L121.363 9.36987L121.324 6.79016L119.624 6.81574L119.779 17.1546L121.579 17.1275L121.51 12.528C121.465 9.50835 123.003 8.02505 125.508 8.38739L125.483 6.68759Z" fill="#333333"/>
<path d="M140.342 8.64934L140.302 8.6493C139.643 7.16859 138.544 6.42741 136.964 6.42571C135.444 6.42408 134.284 6.94283 133.463 7.96195C132.641 8.98107 132.24 10.2606 132.238 11.8006C132.237 13.3406 132.655 14.6411 133.474 15.682C134.293 16.7228 135.473 17.2441 136.993 17.2458C138.513 17.2474 139.954 16.3289 140.295 14.7493L140.335 14.7493L140.333 16.7293C140.331 18.8893 139.57 19.7085 137.23 19.706C135.89 19.7046 134.73 19.2833 134.652 18.1632L132.852 18.1613C132.969 20.3414 135.068 21.2637 137.228 21.206C140.768 21.2098 142.13 19.6713 142.133 16.7313L142.144 6.67128L140.344 6.66934L140.342 8.64934ZM137.174 15.6259C136.154 15.6248 135.395 15.244 134.916 14.4635C134.456 13.683 134.217 12.7628 134.219 11.6828C134.221 9.52277 135.263 7.92389 137.323 7.9261C139.563 7.92851 140.26 10.1093 140.259 11.4093C140.437 13.4094 139.474 15.6084 137.174 15.6259Z" fill="#333333"/>
<path d="M158.413 10.3101C158.424 9.73017 158.393 9.2695 158.066 8.54323C157.914 8.16029 157.699 7.85621 157.404 7.59061C156.854 7.08017 155.722 6.61881 154.222 6.59061C152.343 6.55526 151.072 7.13146 150.429 8.31959C150.243 8.65614 150.114 9.1338 150.021 9.79218L151.821 9.82603C151.888 9.44722 151.911 9.30762 152.18 8.8326C152.489 8.33833 153.195 8.05154 154.235 8.0711C155.774 8.10006 156.644 8.65651 156.626 9.61634C156.611 10.3962 156.446 10.6531 155.26 10.9709C155.079 11.0275 154.698 11.0803 154.117 11.1294C153.556 11.1789 153.035 11.2491 152.533 11.3397C152.031 11.4303 151.528 11.5608 150.985 11.7506C149.937 12.131 149.24 13.0381 149.216 14.3378C149.191 15.6576 149.76 17.3286 152.919 17.388C154.899 17.4252 156.235 16.5702 156.586 14.9165L156.606 14.9169C156.584 16.0967 156.59 16.8569 156.643 17.218L158.443 17.2519C158.349 16.89 158.298 16.429 158.309 15.8491L158.413 10.3101ZM156.573 12.4158C156.524 15.0354 155.365 16.0338 153.145 15.992C151.846 15.9676 151.058 15.2926 151.076 14.3328C151.1 13.053 151.868 12.6274 153.715 12.3221C155.621 11.9779 156.408 11.6526 156.604 10.7561L156.573 12.4158Z" fill="#333333"/>
<path d="M171.908 7.28379C169.98 6.89728 168.352 7.70177 167.701 9.7606L167.661 9.75922L167.749 7.18075L166.05 7.1223L165.695 17.4562L167.494 17.5181L167.652 12.9208C167.756 9.90258 169.365 8.49707 171.85 8.98279L171.908 7.28379Z" fill="#333333"/>
<path d="M178.173 14.8787C178.194 16.0612 178.591 16.9421 179.365 17.4814C180.139 18.0208 181.126 18.3104 182.324 18.3703C183.862 18.4473 185.216 18.2146 186.225 17.2438C186.751 16.7494 187.022 16.1222 187.061 15.3432C187.108 14.4043 186.785 13.6673 186.087 13.2118C185.408 12.7574 184.8 12.5067 183.832 12.238C183.655 12.1891 183.398 12.1162 183.041 12.0383L182.25 11.8385L181.601 11.6058C180.914 11.3311 180.512 10.9506 180.545 10.2914C180.593 9.33261 181.613 8.96308 182.792 9.02202C184.13 9.08895 184.933 9.44951 185.169 10.7429L186.827 10.8258C186.727 9.61931 186.347 8.79933 185.669 8.3449C185.011 7.89146 184.043 7.62278 182.745 7.55785C181.726 7.5069 180.814 7.72163 180.01 8.18204C179.206 8.64246 178.791 9.34258 178.743 10.3014C178.758 11.6038 179.247 12.229 180.264 12.7204C181.028 13.059 181.383 13.1568 182.313 13.3836C182.729 13.4844 183.025 13.5594 183.222 13.6293C183.44 13.6802 183.695 13.7731 184.01 13.889C184.325 14.0048 184.558 14.1366 184.692 14.2635C185 14.5192 185.279 14.9337 185.253 15.473C185.224 16.0523 184.924 16.4378 184.373 16.6505C183.821 16.8632 183.196 16.9521 182.477 16.9162C180.819 16.8332 179.95 16.189 179.911 14.9656L178.173 14.8787Z" fill="#333333"/>
<path d="M198.868 17.4892L198.828 17.4865L196.402 8.5635L194.346 8.42525L197.723 19.0158L199.778 19.154L204.483 9.1071L202.468 8.97154L198.868 17.4892Z" fill="#333333"/>
<path d="M221.965 19.6615C219.973 19.4855 219.006 17.9343 219.176 16.0019L226.727 16.6689C227.074 12.7442 225.694 10.6346 222.606 10.3618C221.172 10.2351 220.034 10.6164 219.174 11.4841C218.599 10.4897 217.466 9.9077 215.753 9.75634C212.067 9.43073 211.577 11.7968 211.436 12.487L211.42 12.6663L213.213 12.8247C213.306 12.4515 213.338 12.3138 213.639 11.8585C213.942 11.3834 214.646 11.1444 215.662 11.2341C217.216 11.3714 217.949 11.9381 217.861 12.9342C217.8 13.6315 217.773 13.9303 216.485 14.198C216.3 14.2419 215.916 14.2682 215.333 14.277C214.77 14.2875 214.245 14.3214 213.738 14.377C213.231 14.4326 212.721 14.5281 212.165 14.6798C211.094 14.9867 210.336 15.8433 210.222 17.1382C210.105 18.4531 210.557 20.1595 213.705 20.4376C215.637 20.6083 217.03 19.8479 217.514 18.2242L217.66 17.715C218.328 19.9224 219.542 20.9533 221.714 21.1451C224.044 21.351 225.789 20.2402 226.484 18.0529L224.751 17.8998C224.318 19.1666 223.3 19.7794 221.965 19.6615ZM222.474 11.856C224.227 12.0109 225.156 13.3176 225.066 15.0163L219.308 14.5077C219.458 12.8143 220.701 11.6993 222.474 11.856ZM217.615 15.7234C217.384 18.3332 216.239 19.256 214.027 19.0606C212.732 18.9462 211.993 18.2183 212.078 17.2621C212.191 15.987 212.986 15.6156 214.849 15.4389C216.775 15.2275 217.52 14.9722 217.759 14.0897L217.615 15.7234Z" fill="#333333"/>
<path d="M241.94 14.6964C241.402 13.3696 240.356 12.6308 238.806 12.4602C237.355 12.3004 236.169 12.6529 235.207 13.5329C234.267 14.3953 233.722 15.5024 233.572 16.8741C233.399 18.4446 233.696 19.765 234.459 20.8752C235.222 21.9853 236.4 22.618 237.971 22.7908C239.541 22.9636 240.828 22.6023 241.815 21.6847C242.801 20.767 243.378 19.5429 243.551 17.9723C243.899 14.8114 243.026 12.1399 240.93 9.97763L243.332 9.17559L242.717 8.36345L240.209 9.2142C239.794 8.78616 239.316 8.37144 238.801 7.93246L237.11 8.67192C237.7 8.9783 238.202 9.35545 238.598 9.7813L236.319 10.5567L236.987 11.435L239.391 10.6131C239.741 10.9131 240.22 11.4891 240.791 12.3366C241.362 13.1841 241.758 13.9722 241.98 14.7008L241.94 14.6964ZM235.361 17.071C235.59 14.9836 236.852 13.7543 238.84 13.973C241.047 14.2159 241.981 15.7874 241.762 17.7754C241.497 20.1809 239.964 21.5011 238.135 21.2998C236.306 21.0985 235.096 19.4765 235.361 17.071Z" fill="#333333"/>
<path d="M253.944 10.0486L252.118 9.82078L251.86 11.8848L253.686 12.1126L253.944 10.0486ZM250.37 23.9934L252.156 24.2162L253.436 13.9558L251.65 13.7329L250.37 23.9934Z" fill="#333333"/>
<path d="M268.912 18.1434C268.413 16.8015 267.39 16.0327 265.845 15.8172C264.399 15.6154 263.203 15.9333 262.216 16.7851C261.251 17.6198 260.675 18.7106 260.484 20.0774C260.266 21.6422 260.525 22.9707 261.256 24.1026C261.986 25.2344 263.145 25.9009 264.71 26.1192C266.275 26.3376 267.572 26.0137 268.585 25.1251C269.597 24.2365 270.21 23.0295 270.428 21.4647C270.868 18.3152 270.072 15.6195 268.04 13.3973L270.464 12.6653L269.873 11.8357L267.342 12.6133C266.938 12.1734 266.473 11.745 265.971 11.2912L264.259 11.9813C264.84 12.3047 265.331 12.6962 265.714 13.1334L263.414 13.8424L264.056 14.7397L266.483 13.9879C266.824 14.2979 267.287 14.8875 267.833 15.7512C268.379 16.615 268.752 17.4142 268.952 18.1489L268.912 18.1434ZM262.267 20.3261C262.557 18.2462 263.855 17.054 265.835 17.3304C268.034 17.6372 268.922 19.2351 268.645 21.216C268.311 23.6127 266.74 24.8879 264.917 24.6336C263.095 24.3794 261.933 22.7229 262.267 20.3261Z" fill="#333333"/>
</svg>
