<svg width="139" height="25" viewBox="0 0 139 25" fill="none" xmlns="http://www.w3.org/2000/svg">
<path d="M12.3212 14.387C12.156 13.3963 11.8988 12.6208 11.5694 12.0616C11.2799 11.5046 10.7996 11.1373 10.1096 10.9386C12.0156 10.524 13.0254 9.29832 13.1389 7.26148C13.268 4.94507 11.6962 3.3151 8.64095 3.14485L2.57037 2.80657L1.77586 17.0644L3.67292 17.1702L4.00563 11.1994L7.77978 11.4097C9.27746 11.4932 10.0039 12.4751 10.3731 14.1182C10.4053 14.2602 10.4662 14.6042 10.536 15.1489C10.6258 15.6947 10.72 16.1607 10.8398 16.5279C10.9595 16.8951 11.1203 17.2446 11.361 17.5986L13.4178 17.7132L13.4289 17.5135C13.1128 17.0752 12.8777 16.6214 12.7413 16.1932C12.6049 15.7649 12.4586 15.1559 12.3212 14.387ZM4.37841 4.5098L8.55193 4.74237C10.4091 4.84585 11.3053 5.65698 11.2219 7.15465C11.1161 9.05171 10.1053 9.93684 8.1883 9.83002L4.09465 9.6019L4.37841 4.5098Z" fill="#333333"/>
<path d="M25.4107 7.64481C23.9518 7.58715 22.6922 8.05777 21.6727 9.03827C20.6532 10.0188 20.103 11.278 20.0422 12.8168C20.0126 16.0982 21.7659 18.3292 25.0433 18.4587C27.4414 18.5535 29.2098 17.3624 29.7587 15.1224L28.0001 15.0529C27.6474 16.38 26.5614 17.0176 25.1025 16.9599C23.0042 16.877 21.9093 15.7128 21.8187 13.4475L29.9923 13.7705C30.2118 11.2572 29.1478 7.79252 25.4107 7.64481ZM21.9387 11.931C22.3279 10.185 23.6735 9.0573 25.3522 9.12365C27.0509 9.1908 28.2002 10.4972 28.2338 12.1798L21.9387 11.931Z" fill="#333333"/>
<path d="M41.4563 16.7889L38.6279 8.33518L36.7085 8.28692L40.5357 19.1866L40.2367 19.9393C39.9782 20.673 39.3648 21.1978 38.705 21.1812L37.5654 21.1525L37.5277 22.652L38.9272 22.6872C40.2068 22.7194 41.1031 22.0817 41.5967 20.7537L46.3855 8.53024L44.586 8.485L41.4563 16.7889Z" fill="#333333"/>
<path d="M61.7463 19.0834L57.12 12.491L61.4424 8.73932L59.1025 8.71306L54.2544 12.9789L54.3471 4.71943L52.5472 4.69923L52.3869 18.9783L54.1868 18.9985L54.2319 14.9788L55.8073 13.6164L59.5865 19.0591L61.7463 19.0834Z" fill="#333333"/>
<path d="M70.6986 4.8176L68.8586 4.81843L68.8596 6.89843L70.6996 6.8976L70.6986 4.8176ZM70.6804 8.75761L68.8804 8.75842L68.8858 20.8784C68.886 21.3184 68.5861 21.5386 67.9661 21.5388L66.9661 21.5393L66.9668 23.0393L68.7868 23.0385C70.0468 23.0379 70.6865 22.3776 70.6859 21.0576L70.6804 8.75761Z" fill="#333333"/>
<path d="M86.939 12.0259C86.932 11.446 86.8864 10.9865 86.5377 10.2707C86.3731 9.89262 86.1495 9.59531 85.8463 9.33896C85.2803 8.84579 84.1351 8.41964 82.6352 8.43782C80.7553 8.4606 79.5027 9.07583 78.8973 10.2833C78.7214 10.6254 78.6072 11.1068 78.5352 11.7678L80.3351 11.7459C80.3905 11.3652 80.4088 11.225 80.663 10.7419C80.9569 10.2383 81.6532 9.92983 82.6931 9.91723C84.233 9.89856 85.1195 10.4279 85.1311 11.3878C85.1406 12.1677 84.9837 12.4296 83.8079 12.7839C83.6287 12.8461 83.2494 12.9107 82.6702 12.9777C82.111 13.0445 81.592 13.1308 81.0932 13.2369C80.5945 13.3429 80.0962 13.489 79.5587 13.6955C78.5236 14.1081 77.8548 15.0362 77.8706 16.3361C77.8866 17.6561 78.5066 19.3087 81.6664 19.2704C83.6463 19.2464 84.9555 18.3504 85.2553 16.6867L85.2753 16.6864C85.2896 17.8663 85.3189 18.626 85.3832 18.9853L87.1831 18.9635C87.0787 18.6047 87.0132 18.1455 87.0061 17.5655L86.939 12.0259ZM85.1651 14.1876C85.1968 16.8074 84.0693 17.8411 81.8494 17.868C80.5495 17.8838 79.7416 17.2335 79.7299 16.2736C79.7144 14.9937 80.469 14.5445 82.3048 14.1822C84.2 13.7792 84.9759 13.4298 85.1449 12.5277L85.1651 14.1876Z" fill="#333333"/>
<path d="M99.2988 8.11148C97.6994 8.15457 96.4419 9.00875 96.0068 10.6811L95.9668 10.6822L95.9065 8.44296L94.2071 8.48875L94.4856 18.825L96.2849 18.7765L96.1373 13.2985C96.0679 10.7194 97.08 9.6718 99.0993 9.6174C100.619 9.57646 101.496 10.1931 101.545 12.0124L101.723 18.63L103.522 18.5815L103.339 11.784C103.277 9.46484 101.918 8.04092 99.2988 8.11148Z" fill="#333333"/>
<path d="M115.652 7.54602C114.193 7.60762 112.976 8.17947 112.04 9.2399C111.104 10.3003 110.658 11.6003 110.723 13.1389C110.962 16.4118 112.891 18.4922 116.168 18.3539C118.566 18.2526 120.231 16.9212 120.596 14.6438L118.837 14.718C118.594 16.0695 117.564 16.7936 116.105 16.8552C114.007 16.9438 112.821 15.8729 112.545 13.6225L120.718 13.2774C120.732 10.7546 119.388 7.38825 115.652 7.54602ZM112.541 12.1013C112.787 10.3294 114.036 9.09558 115.714 9.02471C117.413 8.95299 118.665 10.1612 118.836 11.8355L112.541 12.1013Z" fill="#333333"/>
<path d="M127.696 14.5369C127.843 15.7104 128.331 16.544 129.159 16.9976C129.986 17.4512 130.998 17.6338 132.196 17.5654C133.733 17.4777 135.054 17.1018 135.954 16.0288C136.424 15.4811 136.627 14.8285 136.583 14.0497C136.529 13.1113 136.129 12.413 135.386 12.0347C134.663 11.6552 134.032 11.4709 133.041 11.3071C132.859 11.2774 132.596 11.2324 132.233 11.193L131.425 11.0788L130.755 10.9167C130.042 10.717 129.602 10.3815 129.565 9.72261C129.51 8.76417 130.484 8.28787 131.663 8.22063C133 8.14428 133.837 8.41703 134.21 9.67786L135.867 9.58327C135.639 8.39433 135.174 7.61956 134.451 7.24013C133.748 6.85957 132.757 6.69577 131.46 6.76984C130.441 6.82796 129.558 7.13883 128.807 7.68246C128.057 8.2261 127.719 8.96658 127.773 9.92502C127.927 11.2183 128.481 11.7877 129.544 12.1678C130.34 12.4228 130.704 12.4822 131.653 12.6083C132.076 12.6643 132.379 12.7071 132.582 12.7556C132.804 12.783 133.069 12.848 133.394 12.9296C133.719 13.0112 133.965 13.1174 134.112 13.2292C134.445 13.4506 134.767 13.8328 134.798 14.372C134.831 14.951 134.574 15.3663 134.049 15.6367C133.524 15.9071 132.911 16.0622 132.193 16.1032C130.535 16.1978 129.603 15.6501 129.433 14.4378L127.696 14.5369Z" fill="#333333"/>
</svg>
