<svg width="100" height="16" viewBox="0 0 100 16" fill="none" xmlns="http://www.w3.org/2000/svg">
<path d="M10.38 12.3H10.34L2.5 0.719999H0.48V15H2.28V3.54H2.32L10.1 15H12.18V0.719999H10.38V12.3ZM14.228 9.84C14.228 11.4 14.688 12.7 15.588 13.72C16.488 14.74 17.748 15.24 19.328 15.24C20.908 15.24 22.168 14.74 23.068 13.72C23.968 12.7 24.428 11.4 24.428 9.84C24.428 8.26 23.968 6.98 23.068 5.96C22.168 4.94 20.908 4.42 19.328 4.42C17.748 4.42 16.488 4.94 15.588 5.96C14.688 6.98 14.228 8.26 14.228 9.84ZM22.628 9.84C22.628 11.04 22.308 12 21.668 12.7C21.048 13.4 20.268 13.74 19.328 13.74C18.388 13.74 17.608 13.4 16.968 12.7C16.348 12 16.028 11.04 16.028 9.84C16.028 8.62 16.348 7.66 16.968 6.96C17.608 6.26 18.388 5.9 19.328 5.9C20.268 5.9 21.048 6.26 21.668 6.96C22.308 7.66 22.628 8.62 22.628 9.84ZM32.1714 4.62C30.2314 4.3 28.6314 5.16 28.0514 7.24H28.0114V4.66H26.3114V15H28.1114V10.4C28.1114 7.38 29.6714 5.92 32.1714 6.32V4.62ZM41.3352 6.76C40.6552 5.5 39.5352 4.88 37.9752 4.88C36.5152 4.88 35.3752 5.36 34.5152 6.34C33.6752 7.3 33.2552 8.46 33.2552 9.84C33.2552 11.42 33.6952 12.7 34.5752 13.72C35.4552 14.74 36.6952 15.24 38.2752 15.24C39.8552 15.24 41.0952 14.74 41.9752 13.72C42.8552 12.7 43.2952 11.42 43.2952 9.84C43.2952 6.66 42.1352 4.1 39.8152 2.18L42.1152 1.12L41.4152 0.38L39.0152 1.5C38.5552 1.12 38.0352 0.76 37.4752 0.38L35.8752 1.3C36.4952 1.54 37.0352 1.86 37.4752 2.24L35.2952 3.26L36.0552 4.06L38.3552 2.98C38.7352 3.24 39.2752 3.76 39.9352 4.54C40.5952 5.32 41.0752 6.06 41.3752 6.76H41.3352ZM35.0552 9.84C35.0552 7.74 36.1752 6.38 38.1752 6.38C40.3952 6.38 41.4952 7.84 41.4952 9.84C41.4952 12.26 40.1152 13.74 38.2752 13.74C36.4352 13.74 35.0552 12.26 35.0552 9.84ZM52.3395 10.14C52.3395 12.72 51.2995 13.74 49.2795 13.74C47.7595 13.74 46.8995 13.1 46.8995 11.28V4.66H45.0995V11.46C45.0995 13.78 46.4195 15.24 49.0395 15.24C50.6395 15.24 51.9195 14.42 52.3995 12.76H52.4395V15H54.1395V4.66H52.3395V10.14ZM62.23 4.62C60.29 4.3 58.69 5.16 58.11 7.24H58.07V4.66H56.37V15H58.17V10.4C58.17 7.38 59.73 5.92 62.23 6.32V4.62ZM63.7938 15H65.5938V0.719999H63.7938V15ZM76.473 8.06C76.473 7.48 76.433 7.02 76.093 6.3C75.933 5.92 75.713 5.62 75.413 5.36C74.853 4.86 73.713 4.42 72.213 4.42C70.333 4.42 69.073 5.02 68.453 6.22C68.273 6.56 68.153 7.04 68.073 7.7H69.873C69.933 7.32 69.953 7.18 70.213 6.7C70.513 6.2 71.213 5.9 72.253 5.9C73.793 5.9 74.673 6.44 74.673 7.4C74.673 8.18 74.513 8.44 73.333 8.78C73.153 8.84 72.773 8.9 72.193 8.96C71.633 9.02 71.113 9.1 70.613 9.2C70.113 9.3 69.613 9.44 69.073 9.64C68.033 10.04 67.353 10.96 67.353 12.26C67.353 13.58 67.953 15.24 71.113 15.24C73.093 15.24 74.413 14.36 74.733 12.7H74.753C74.753 13.88 74.773 14.64 74.833 15H76.633C76.533 14.64 76.473 14.18 76.473 13.6V8.06ZM74.673 10.2C74.673 12.82 73.533 13.84 71.313 13.84C70.013 13.84 69.213 13.18 69.213 12.22C69.213 10.94 69.973 10.5 71.813 10.16C73.713 9.78 74.493 9.44 74.673 8.54V10.2ZM83.8138 4.42C82.2138 4.42 80.9338 5.24 80.4538 6.9H80.4138V4.66H78.7138V15H80.5138V9.52C80.5138 6.94 81.5538 5.92 83.5738 5.92C85.0938 5.92 85.9538 6.56 85.9538 8.38V15H87.7538V8.2C87.7538 5.88 86.4338 4.42 83.8138 4.42ZM97.5042 6.72H97.4242C97.0442 5.22 95.6642 4.42 94.1242 4.42C92.6042 4.42 91.4442 4.94 90.6242 5.98C89.8242 7 89.4242 8.3 89.4242 9.86C89.4242 11.4 89.8242 12.7 90.6442 13.72C91.4642 14.74 92.6242 15.24 94.1442 15.24C95.7242 15.24 96.8242 14.5 97.4842 13.02H97.5242V15H99.2642V0.719999H97.4642L97.5042 6.72ZM94.3642 13.74C93.2842 13.74 92.5042 13.36 92.0042 12.6C91.5042 11.82 91.2642 10.88 91.2642 9.74C91.2642 8.68 91.5242 7.78 92.0442 7.06C92.5842 6.32 93.3642 5.96 94.4042 5.96C96.3442 5.96 97.4442 7.4 97.5042 9.54V9.68C97.5042 10.82 97.2642 11.8 96.7642 12.58C96.2842 13.36 95.4842 13.74 94.3642 13.74Z" fill="#333333"/>
</svg>
