<svg width="92" height="16" viewBox="0 0 92 16" fill="none" xmlns="http://www.w3.org/2000/svg">
<path d="M11.78 4.82C11.68 1.8 9.64 0.38 6.54 0.38C5.1 0.38 3.86 0.739999 2.82 1.46C1.8 2.18 1.28 3.22 1.28 4.56C1.28 9.8 10.42 6.8 10.42 11.14C10.42 12.08 10.06 12.74 9.32 13.14C8.58 13.54 7.7 13.74 6.68 13.74C5.5 13.74 4.52 13.48 3.76 12.96C3 12.42 2.62 11.6 2.62 10.48H0.72C0.72 12.1 1.28 13.32 2.4 14.14C3.52 14.94 4.94 15.34 6.68 15.34C8.54 15.34 10.24 14.86 11.42 13.52C12.02 12.86 12.32 12.04 12.32 11.08C12.32 5.3 3.18 8.12 3.18 4.42C3.18 3.56 3.5 2.94 4.16 2.56C4.82 2.18 5.6 1.98 6.54 1.98C8.56 1.98 9.66 2.82 9.88 4.82H11.78ZM21.445 10.14C21.445 12.72 20.405 13.74 18.385 13.74C16.865 13.74 16.005 13.1 16.005 11.28V4.66H14.205V11.46C14.205 13.78 15.525 15.24 18.145 15.24C19.745 15.24 21.025 14.42 21.505 12.76H21.545V15H23.245V4.66H21.445V10.14ZM33.1555 6.76C32.4755 5.5 31.3555 4.88 29.7955 4.88C28.3355 4.88 27.1955 5.36 26.3355 6.34C25.4955 7.3 25.0755 8.46 25.0755 9.84C25.0755 11.42 25.5155 12.7 26.3955 13.72C27.2755 14.74 28.5155 15.24 30.0955 15.24C31.6755 15.24 32.9155 14.74 33.7955 13.72C34.6755 12.7 35.1155 11.42 35.1155 9.84C35.1155 6.66 33.9555 4.1 31.6355 2.18L33.9355 1.12L33.2355 0.38L30.8355 1.5C30.3755 1.12 29.8555 0.76 29.2955 0.38L27.6955 1.3C28.3155 1.54 28.8555 1.86 29.2955 2.24L27.1155 3.26L27.8755 4.06L30.1755 2.98C30.5555 3.24 31.0955 3.76 31.7555 4.54C32.4155 5.32 32.8955 6.06 33.1955 6.76H33.1555ZM26.8755 9.84C26.8755 7.74 27.9955 6.38 29.9955 6.38C32.2155 6.38 33.3155 7.84 33.3155 9.84C33.3155 12.26 31.9355 13.74 30.0955 13.74C28.2555 13.74 26.8755 12.26 26.8755 9.84ZM44.1598 10.14C44.1598 12.72 43.1198 13.74 41.0998 13.74C39.5798 13.74 38.7198 13.1 38.7198 11.28V4.66H36.9198V11.46C36.9198 13.78 38.2398 15.24 40.8598 15.24C42.4598 15.24 43.7398 14.42 44.2198 12.76H44.2598V15H45.9598V4.66H44.1598V10.14ZM54.0503 4.62C52.1103 4.3 50.5103 5.16 49.9303 7.24H49.8903V4.66H48.1903V15H49.9903V10.4C49.9903 7.38 51.5503 5.92 54.0503 6.32V4.62ZM55.6141 15H57.4141V0.719999H55.6141V15ZM68.2933 8.06C68.2933 7.48 68.2533 7.02 67.9133 6.3C67.7533 5.92 67.5333 5.62 67.2333 5.36C66.6733 4.86 65.5333 4.42 64.0333 4.42C62.1533 4.42 60.8933 5.02 60.2733 6.22C60.0933 6.56 59.9733 7.04 59.8933 7.7H61.6933C61.7533 7.32 61.7733 7.18 62.0333 6.7C62.3333 6.2 63.0333 5.9 64.0733 5.9C65.6133 5.9 66.4933 6.44 66.4933 7.4C66.4933 8.18 66.3333 8.44 65.1533 8.78C64.9733 8.84 64.5933 8.9 64.0133 8.96C63.4533 9.02 62.9333 9.1 62.4333 9.2C61.9333 9.3 61.4333 9.44 60.8933 9.64C59.8533 10.04 59.1733 10.96 59.1733 12.26C59.1733 13.58 59.7733 15.24 62.9333 15.24C64.9133 15.24 66.2333 14.36 66.5533 12.7H66.5733C66.5733 13.88 66.5933 14.64 66.6533 15H68.4533C68.3533 14.64 68.2933 14.18 68.2933 13.6V8.06ZM66.4933 10.2C66.4933 12.82 65.3533 13.84 63.1333 13.84C61.8333 13.84 61.0333 13.18 61.0333 12.22C61.0333 10.94 61.7933 10.5 63.6333 10.16C65.5333 9.78 66.3133 9.44 66.4933 8.54V10.2ZM75.6341 4.42C74.0341 4.42 72.7541 5.24 72.2741 6.9H72.2341V4.66H70.5341V15H72.3341V9.52C72.3341 6.94 73.3741 5.92 75.3941 5.92C76.9141 5.92 77.7741 6.56 77.7741 8.38V15H79.5741V8.2C79.5741 5.88 78.2541 4.42 75.6341 4.42ZM89.3245 6.72H89.2445C88.8645 5.22 87.4845 4.42 85.9445 4.42C84.4245 4.42 83.2645 4.94 82.4445 5.98C81.6445 7 81.2445 8.3 81.2445 9.86C81.2445 11.4 81.6445 12.7 82.4645 13.72C83.2845 14.74 84.4445 15.24 85.9645 15.24C87.5445 15.24 88.6445 14.5 89.3045 13.02H89.3445V15H91.0845V0.719999H89.2845L89.3245 6.72ZM86.1845 13.74C85.1045 13.74 84.3245 13.36 83.8245 12.6C83.3245 11.82 83.0845 10.88 83.0845 9.74C83.0845 8.68 83.3445 7.78 83.8645 7.06C84.4045 6.32 85.1845 5.96 86.2245 5.96C88.1645 5.96 89.2645 7.4 89.3245 9.54V9.68C89.3245 10.82 89.0845 11.8 88.5845 12.58C88.1045 13.36 87.3045 13.74 86.1845 13.74Z" fill="#333333"/>
</svg>
