<svg width="213" height="164" viewBox="0 0 213 164" fill="none" xmlns="http://www.w3.org/2000/svg">
<path d="M148.149 163.02L157.854 152.177L178.78 163.02H201.868L209.204 147.305L185.576 118.03L206.752 125.618L212.466 94.1877L204.32 88.507L210.555 80.9188L194.803 71.1537L189.109 51.9138L177.16 41.3402L161.948 33.4825L141.292 0.704102L135.327 9.37036L112.51 0.704102L110.868 10.1789L99.1894 19.6745L122.817 23.4686L128.802 18.5964L130.423 25.6248L141.832 35.9289L112.78 36.7375V47.5807L139.401 63.5656L148.897 81.8518L144.014 106.648L138.299 83.8836L130.153 95.8256L131.254 76.8552L118.744 68.4378L107.897 73.6002L106.255 60.3106L101.371 51.1052L81.8165 39.4535L65.7944 45.694L80.1748 67.3597L54.9259 58.1544L51.123 63.5656L79.6345 90.9327L51.123 81.8518L42.4366 91.4718L64.9632 103.683L90.2328 108.286L73.4002 114.506L72.0287 121.824L32.3786 101.776L38.9038 136.462L19.058 122.363L0.064209 143.511L40.2546 158.957L72.569 149.482L97.8386 145.957L139.13 150.29L148.149 163.02Z" fill="#F2F0E9"/>
</svg>
