<svg width="487" height="221" viewBox="0 0 487 221" fill="none" xmlns="http://www.w3.org/2000/svg">
<path d="M2.08762 143.021L0.800476 119.721C0.800476 119.721 13.4851 115.443 16.4953 105.911C19.9415 94.9674 16.4123 85.9546 16.4123 85.9546L120.359 0.250488H208.632L352.813 16.137L486.821 55.8429C486.821 55.8429 481.735 59.0202 480.157 64.1081C478.579 69.1959 478.891 71.6464 478.891 71.6464H452.214L439.508 84.1064L416.651 91.7278L363.941 150.809C363.941 150.809 326.468 155.565 300.435 163.83L286.152 173.673L269.959 199.092L226.113 221L200.91 214.646L181.976 218.135L136.885 197.804L108.941 197.493L52.7221 144.766L38.7504 140.01L32.813 130.478L26.4395 138.91L9.81048 143.644L2.08762 143.021Z" fill="#F2F0E9"/>
</svg>
