<svg width="238" height="268" viewBox="0 0 238 268" fill="none" xmlns="http://www.w3.org/2000/svg">
<path d="M0.490479 223.473L37.2774 128.348L70.7862 76.3902L136.849 4.83377L150.543 0.427734L156.664 15.3708L150.066 32.5169L141.995 45.9844L144.443 63.6293L163.283 51.3673L178.201 44.5088L172.578 61.4263L197.29 75.8914L209.531 68.7835L208.307 85.4516L226.171 85.9504L227.894 104.094L217.125 109.477L205.132 124.171L226.42 117.562L229.844 128.597L211.253 138.407L236.214 138.657L237.936 157.777L232.313 166.838L205.402 160.229L226.69 175.422L205.9 208.987L195.63 214.37C195.63 214.37 172.869 203.105 171.416 204.331C169.943 205.558 194.405 223.493 194.405 223.493C194.405 223.493 178.74 227.13 178.263 228.585C177.765 230.061 183.886 236.192 183.886 236.192L178.989 243.05L181.915 264.374C181.915 264.374 165.524 264.124 157.204 267.554L18.7283 226.133L0.490479 223.473Z" fill="#F2F0E9"/>
</svg>
