<svg width="262" height="180" viewBox="0 0 262 180" fill="none" xmlns="http://www.w3.org/2000/svg">
<path d="M158.851 179.089L146.003 173.625L153.342 164.753H157.437L159.994 159.995L152.406 157.772L130.141 176.014L123.322 176.347L129.122 164.753L124.694 163.05L127.771 158.957L127.418 151.29L138.852 142.605L141.658 143.956L142.989 139.53L160.68 123.158L129.642 135.437L123.322 143.27L112.928 116.344L115.651 98.1018L48.7724 79.0081L42.3069 84.971L28.3159 84.6386L16.5492 93.4894L3.57679 75.9331L0.687103 67.7471L9.70959 66.5629L19.7923 63.3633L29.8542 71.3415L47.2547 60.2468L59.7074 65.8773L60.0401 55.6552H72.6591L78.6255 62.3037L92.6166 46.7835L100.475 59.2287L107.98 50.8765L159.662 56.507L155.899 46.7835L164.609 32.3022L159.994 24.8018L146.357 37.247L136.794 41.5062L104.737 29.0611L141.242 1.0957L159.308 0.0776367L261.32 93.8426L158.851 179.089Z" fill="#F2F0E9"/>
</svg>
