<svg width="464" height="287" viewBox="0 0 464 287" fill="none" xmlns="http://www.w3.org/2000/svg">
<path d="M0.205933 184.383L100.032 273.576L189.149 273.95L304.195 286.25L342.516 187.79L377.094 136.161L434.046 74.7873L420.655 65.9157L437.518 49.7516L433.152 38.0337L463.966 22.8669V18.7324L446.667 23.4278L441.302 18.7324L428.806 23.8641L424.003 37.0364L408.928 44.1628L408.034 59.2257L397.326 47.7363L380.588 40.3814L390.194 22.6383L368.985 16.1769L370.545 7.70006L359.379 0.57373L347.881 13.4967L339.959 6.14182L329.126 10.2763L331.039 27.0014L341.976 43.8303L333.492 57.335L310.371 68.3673L303.675 52.3071L289.058 59.4542L289.516 69.7178L282.696 74.2886L281.032 91.2422L265.167 94.1301L248.429 71.276L218.862 64.6899L224.892 87.7726L234.81 101.714L237.617 145.78L220.421 98.5971L205.471 91.6785L201.334 73.1667L185.49 60.3476L173.534 61.5734L159.811 77.8622L138.498 79.4204L142.844 93.9224L133.03 98.2647L146.649 131.611L124.983 130.821L122.425 110.855L114.607 110.19L95.8523 69.4893L77.7835 79.7528L80.3618 147.796L61.2533 154.839L60.6087 137.283L44.2033 149.063L37.9239 178.296L32.0188 174.826L30.0851 195.208L22.4333 184.175L0.205933 184.383Z" fill="#F2F0E9"/>
</svg>
