<svg width="96" height="16" viewBox="0 0 96 16" fill="none" xmlns="http://www.w3.org/2000/svg">
<path d="M6.14 13.1H6.1L2 0.719999H0L4.92 15L7.32 14.98L12.28 0.719999H10.28L6.14 13.1ZM18.0052 4.42C16.5452 4.42 15.3052 4.94 14.3252 5.96C13.3452 6.98 12.8452 8.26 12.8452 9.8C12.9452 13.08 14.7852 15.24 18.0652 15.24C20.4652 15.24 22.1852 13.98 22.6452 11.72H20.8852C20.5852 13.06 19.5252 13.74 18.0652 13.74C15.9652 13.74 14.8252 12.62 14.6452 10.36H22.8252C22.9452 7.84 21.7452 4.42 18.0052 4.42ZM14.7052 8.84C15.0252 7.08 16.3252 5.9 18.0052 5.9C19.7052 5.9 20.9052 7.16 21.0052 8.84H14.7052ZM23.937 11.96C24.017 13.14 24.457 14 25.257 14.5C26.057 15 27.057 15.24 28.257 15.24C29.797 15.24 31.137 14.94 32.097 13.92C32.597 13.4 32.837 12.76 32.837 11.98C32.837 11.04 32.477 10.32 31.757 9.9C31.057 9.48 30.437 9.26 29.457 9.04C29.277 9 29.017 8.94 28.657 8.88L27.857 8.72L27.197 8.52C26.497 8.28 26.077 7.92 26.077 7.26C26.077 6.3 27.077 5.88 28.257 5.88C29.597 5.88 30.417 6.2 30.717 7.48H32.377C32.217 6.28 31.797 5.48 31.097 5.06C30.417 4.64 29.437 4.42 28.137 4.42C27.117 4.42 26.217 4.68 25.437 5.18C24.657 5.68 24.277 6.4 24.277 7.36C24.357 8.66 24.877 9.26 25.917 9.7C26.697 10 27.057 10.08 27.997 10.26C28.417 10.34 28.717 10.4 28.917 10.46C29.137 10.5 29.397 10.58 29.717 10.68C30.037 10.78 30.277 10.9 30.417 11.02C30.737 11.26 31.037 11.66 31.037 12.2C31.037 12.78 30.757 13.18 30.217 13.42C29.677 13.66 29.057 13.78 28.337 13.78C26.677 13.78 25.777 13.18 25.677 11.96H23.937ZM39.3128 4.66H37.2528V1.36H37.1928L35.4928 2.2V4.66H33.7928V6.14H35.4928V13.02C35.4928 14.28 35.9128 15 37.1928 15H39.2128V13.48H38.0128C37.3928 13.48 37.2528 13.32 37.2528 12.84V6.14H39.3128V4.66ZM48.32 10.14C48.32 12.72 47.28 13.74 45.26 13.74C43.74 13.74 42.88 13.1 42.88 11.28V4.66H41.08V11.46C41.08 13.78 42.4 15.24 45.02 15.24C46.62 15.24 47.9 14.42 48.38 12.76H48.42V15H50.12V4.66H48.32V10.14ZM58.2105 4.62C56.2705 4.3 54.6705 5.16 54.0905 7.24H54.0505V4.66H52.3505V15H54.1505V10.4C54.1505 7.38 55.7105 5.92 58.2105 6.32V4.62ZM59.7742 15H61.5742V0.719999H59.7742V15ZM72.4534 8.06C72.4534 7.48 72.4134 7.02 72.0734 6.3C71.9134 5.92 71.6934 5.62 71.3934 5.36C70.8334 4.86 69.6934 4.42 68.1934 4.42C66.3134 4.42 65.0534 5.02 64.4334 6.22C64.2534 6.56 64.1334 7.04 64.0534 7.7H65.8534C65.9134 7.32 65.9334 7.18 66.1934 6.7C66.4934 6.2 67.1934 5.9 68.2334 5.9C69.7734 5.9 70.6534 6.44 70.6534 7.4C70.6534 8.18 70.4934 8.44 69.3134 8.78C69.1334 8.84 68.7534 8.9 68.1734 8.96C67.6134 9.02 67.0934 9.1 66.5934 9.2C66.0934 9.3 65.5934 9.44 65.0534 9.64C64.0134 10.04 63.3334 10.96 63.3334 12.26C63.3334 13.58 63.9334 15.24 67.0934 15.24C69.0734 15.24 70.3934 14.36 70.7134 12.7H70.7334C70.7334 13.88 70.7534 14.64 70.8134 15H72.6134C72.5134 14.64 72.4534 14.18 72.4534 13.6V8.06ZM70.6534 10.2C70.6534 12.82 69.5134 13.84 67.2934 13.84C65.9934 13.84 65.1934 13.18 65.1934 12.22C65.1934 10.94 65.9534 10.5 67.7934 10.16C69.6934 9.78 70.4734 9.44 70.6534 8.54V10.2ZM79.7942 4.42C78.1942 4.42 76.9142 5.24 76.4342 6.9H76.3942V4.66H74.6942V15H76.4942V9.52C76.4942 6.94 77.5342 5.92 79.5542 5.92C81.0742 5.92 81.9342 6.56 81.9342 8.38V15H83.7342V8.2C83.7342 5.88 82.4142 4.42 79.7942 4.42ZM93.4847 6.72H93.4047C93.0247 5.22 91.6447 4.42 90.1047 4.42C88.5847 4.42 87.4247 4.94 86.6047 5.98C85.8047 7 85.4047 8.3 85.4047 9.86C85.4047 11.4 85.8047 12.7 86.6247 13.72C87.4447 14.74 88.6047 15.24 90.1247 15.24C91.7047 15.24 92.8047 14.5 93.4647 13.02H93.5047V15H95.2447V0.719999H93.4447L93.4847 6.72ZM90.3447 13.74C89.2647 13.74 88.4847 13.36 87.9847 12.6C87.4847 11.82 87.2447 10.88 87.2447 9.74C87.2447 8.68 87.5047 7.78 88.0247 7.06C88.5647 6.32 89.3447 5.96 90.3847 5.96C92.3247 5.96 93.4247 7.4 93.4847 9.54V9.68C93.4847 10.82 93.2447 11.8 92.7447 12.58C92.2647 13.36 91.4647 13.74 90.3447 13.74Z" fill="#333333"/>
</svg>
